<svg width="20" height="30" viewBox="0 0 20 30" fill="none" xmlns="http://www.w3.org/2000/svg">
<g clip-path="url(#clip0_1709_11297)">
<path d="M0.772429 28.9914V0.386031L0.386402 0.772047H19.1916L18.8055 0.386031V28.9914L19.1916 28.6056H0.386402L0.772429 28.9914ZM19.578 28.9914V0.386031V0H19.1916H0.386402H0V0.386031V28.9914V29.3776H0.386402H19.1916H19.578V28.9914Z" fill="black"/>
<path d="M16.8276 0.442383H18.9402V28.755H0.442383V22.9981L16.8276 0.442383Z" fill="#FFF200"/>
<path d="M0.4328 0.435547L0.442391 22.9506L16.8269 0.442196L0.4328 0.435547Z" fill="#ED1D24"/>
<path d="M16.5517 0.821289L0.0904541 23.4184L2.0034 23.5059L16.4073 3.87285L16.5517 0.821289Z" fill="#0095DA"/>
<path d="M14.5156 14.1713L6.95135 9.14908L15.1123 5.04102L14.5156 14.1713Z" fill="black"/>
<path d="M14.0473 22.5267L8.4574 22.5278L11.2656 17.626L14.0473 22.5267Z" fill="black"/>
<path d="M9.91345 25.2863C9.92594 24.1301 12.4613 24.2243 13.5066 25.2863H9.91345Z" fill="#ED1D24"/>
</g>
<defs>
<clipPath id="clip0_1709_11297">
<rect width="19.578" height="29.3776" fill="white"/>
</clipPath>
</defs>
</svg>
