<svg width="276" height="106" viewBox="0 0 276 106" fill="none" xmlns="http://www.w3.org/2000/svg">
<path d="M61.0276 1.59473H68.6889V103.752H1.60626V82.9801L61.0276 1.59473Z" fill="#FFF200"/>
<path d="M1.57092 1.57031L1.6057 82.809L61.0244 1.5943L1.57092 1.57031Z" fill="#ED1D24"/>
<path d="M2.94996 103.734V1.57107L1.57129 2.94969H68.7326L67.3539 1.57107V103.734L68.7326 102.355H1.57129L2.94996 103.734ZM70.1126 103.734V1.57107V0.192383H68.7326H1.57129H0.191284V1.57107V103.734V105.112H1.57129H68.7326H70.1126V103.734Z" fill="black"/>
<path d="M60.0254 2.96289L0.328125 84.4975L7.26546 84.8135L59.5014 13.9735L60.0254 2.96289Z" fill="#0095DA"/>
<path d="M52.6364 51.1315L25.2044 33.0102L54.8004 18.1875L52.6364 51.1315Z" fill="black"/>
<path d="M50.9442 81.2806L30.6722 81.2843L40.8562 63.5977L50.9442 81.2806Z" fill="black"/>
<path d="M35.9535 91.2383C35.9988 87.0663 45.1935 87.4063 48.9842 91.2383H35.9535Z" fill="#ED1D24"/>
<path d="M97.5485 50.0449H97.4494L93.3736 56.8159H102.164L97.5485 50.0449ZM91.3136 59.7791L88.2696 63.708H80.6578L95.092 44.5848H100.692L114.737 63.708H107.026L104.176 59.7791H91.3136Z" fill="black"/>
<path d="M139.373 60.5465H149.584V63.708H132.154V45.0806H139.373V60.5465Z" fill="black"/>
<path d="M179.137 63.708H171.918V48.2457H164.457V45.0806H186.602V48.2457H179.137V63.708Z" fill="black"/>
<path d="M211.688 48.2438V52.3453H223.177V55.5067H211.688V60.5446H223.618V63.7061H204.469V45.0786H223.618V48.2438H211.688Z" fill="black"/>
<path d="M243.643 44.5841H248.849L268.34 57.6046H268.439V45.0761H275.658V64.0781H270.451L250.957 51.0576H250.862V63.7036H243.643V44.5841Z" fill="black"/>
</svg>
