<svg width="209" height="184" viewBox="0 0 209 184" fill="none" xmlns="http://www.w3.org/2000/svg">
<path d="M67.9754 73.9641C66.8976 73.8744 66.1791 73.4026 65.9545 73.1779C64.8808 72.3917 70.6632 70.3504 71.1479 70.3504C71.6325 70.3504 73.1023 69.9702 72.526 71.4684C71.9497 72.9667 73.1023 74.8108 74.0243 73.9641C74.9463 73.1174 127.386 50.9536 128.654 50.7231C129.922 50.4925 127.847 46.4587 126.579 46.4587C125.565 46.4587 125.158 43.1547 125.081 41.5027C128.884 39.5819 136.952 35.7402 138.796 35.7402C141.101 35.7402 139.372 40.8112 138.796 41.5027C138.22 42.1942 133.955 44.73 133.955 45.7672C133.955 46.8045 138.796 64.3228 139.372 65.9364C139.833 67.2272 141.946 69.1634 142.945 69.9702H138.796C137.298 69.9702 137.182 68.5872 136.491 69.9702C135.799 71.3532 147.44 112.498 147.786 114.342C148.131 116.186 155.392 114.342 158.389 114.342C161.385 114.342 161.155 124.139 158.389 124.83C155.623 125.522 146.748 122.756 145.826 120.566C144.904 118.376 135.108 86.336 132.457 79.4209C129.806 72.5057 133.494 67.5499 133.955 65.9364C134.416 64.3228 132.457 63.1703 132.457 64.3228C132.457 65.2449 102.031 104.123 86.8173 123.447C85.8568 121.795 84.1665 118.491 85.0885 118.491C86.0105 118.491 113.133 77.0774 126.579 56.3704L74.7158 80.2276L83.936 116.763C82.3609 118.107 79.2337 119.99 79.3259 116.763C79.4181 113.535 72.4709 92.6748 68.9858 82.6479C59.2938 91.7144 39.9096 110.097 39.9096 111.095C39.9096 112.343 75.6378 121.373 76.8833 121.373C78.1288 121.373 78.3294 125.918 76.8833 125.737C75.4372 125.557 34.9456 114.349 35.3071 111.095C35.6686 107.842 67.9754 78.7916 68.9858 77.8934C69.9963 76.9952 69.3226 74.0762 67.9754 73.9641Z" fill="url(#paint0_linear_4401_44750)"/>
<path d="M52.5079 58.3075C50.6861 58.3076 49.7752 56.6677 52.5079 50.4734C53.2582 48.6516 58.7022 50.4734 61.2528 50.4734C63.8034 50.4734 74.5522 48.2872 77.1028 47.9228C79.6534 47.5584 81.6574 51.7487 80.3822 52.2952C79.1069 52.8418 63.6212 59.4004 62.1637 59.947C60.7062 60.4935 54.3298 58.3073 52.5079 58.3075Z" fill="url(#paint1_linear_4401_44750)"/>
<path d="M112.263 19.8658C111.17 19.8656 99.1459 19.5016 91.4941 17.3154C91.4941 16.1009 91.7492 13.6719 92.7694 13.6719C94.0447 13.6719 108.255 15.8579 112.263 16.4045C116.271 16.951 113.356 19.866 112.263 19.8658Z" fill="url(#paint2_linear_4401_44750)"/>
<path d="M146.516 23.1446C145.058 23.1446 145.058 22.7802 144.512 20.0474C144.512 18.7722 151.617 18.9543 154.35 18.9543C156.536 18.9543 155.261 21.1405 154.35 22.2336C154.35 22.2336 147.973 23.1445 146.516 23.1446Z" fill="url(#paint3_linear_4401_44750)"/>
<path fill-rule="evenodd" clip-rule="evenodd" d="M40.849 67.9609C62.1645 67.9611 80.7473 93.2845 77.8324 121.705C74.9175 150.126 54.513 161.603 38.4809 159.6C22.4487 157.596 10.2415 136.645 7.69083 116.969C5.14024 97.2927 16.4363 68.143 40.849 67.9609ZM68.8861 123.919C73.8161 93.0597 53.235 74.6005 35.5307 78.3682C31.1917 79.2915 25.6489 83.4286 21.3998 89.8252C17.1459 96.229 14.1733 104.919 14.9965 114.98C15.819 125.032 19.3704 133.199 23.5014 139.09C27.6274 144.973 32.3461 148.606 35.518 149.558C39.6151 150.787 46.7836 151.71 53.5209 148.652C60.2708 145.588 66.5495 138.545 68.8861 123.919Z" fill="url(#paint4_linear_4401_44750)"/>
<path fill-rule="evenodd" clip-rule="evenodd" d="M154.434 67.9609C180.025 67.9613 202.334 96.6206 198.835 128.785C195.335 160.95 170.838 173.94 151.591 171.672C132.343 169.404 117.689 145.693 114.627 123.425C111.565 101.157 125.126 68.1669 154.434 67.9609ZM188.062 131.288C193.982 96.357 169.27 75.5042 148.06 79.7588C142.865 80.8008 136.216 85.4752 131.116 92.7129C126.012 99.9568 122.444 109.788 123.432 121.172C124.419 132.546 128.682 141.787 133.64 148.451C138.592 155.109 144.252 159.212 148.048 160.285C152.961 161.675 161.556 162.72 169.633 159.264C177.723 155.802 185.257 147.839 188.062 131.288Z" fill="url(#paint5_linear_4401_44750)"/>
<path d="M13.5424 160.226C36.8573 161.27 49.2107 161.27 51.6466 161.27C54.0825 161.27 81.9212 151.352 82.6171 126.471C83.3131 101.591 75.3095 77.5798 57.3883 71.8381C39.4671 66.0963 16.1522 77.058 13.5424 108.203C11.4545 133.118 24.7358 149.786 31.6375 155.006" stroke="#6D024C" stroke-width="2.2" stroke-linecap="round"/>
<path d="M73.7443 125.429C45.0357 115.511 38.598 114.989 40.5119 113.249C42.4258 111.51 65.2187 89.9345 64.0008 88.1946C62.7828 86.4547 47.8195 73.4051 35.6401 82.2787C23.4607 91.1523 18.9369 103.332 20.3288 116.381C21.7207 129.431 32.6822 153.963 47.2975 152.223C61.9129 150.484 72.1784 140.74 73.7443 128.561C75.3102 116.381 69.9165 93.7621 66.9586 90.9783" stroke="#6D024C" stroke-width="2.2" stroke-linecap="round"/>
<path d="M72.6992 120.73C68.6974 119.512 45.0345 113.944 46.2524 112.204C47.4704 110.465 82.9647 73.0564 131.16 58.7891" stroke="#6D024C" stroke-width="2.2" stroke-linecap="round"/>
<path d="M41.3809 117.077C42.4944 120.279 72.0034 129.779 86.6187 134.129C89.2866 133.085 93.9264 129.605 91.1425 124.037C88.3587 118.469 84.9948 120.093 83.6609 121.601C82.9649 123.167 82.2689 126.786 85.0528 128.735C88.5326 131.171 94.6224 136.216 93.7524 136.564C92.8824 136.912 88.1847 136.738 86.6187 138.304C85.0528 139.87 88.5326 141.61 91.1425 141.61C93.2304 141.61 99.2041 140.914 101.93 140.566V136.564L93.7524 130.475C92.9404 129.431 91.8037 127.343 93.7524 127.343C96.1883 127.343 98.7982 128.735 98.7982 127.343C98.7982 126.229 96.7103 123.863 95.6663 122.819C95.6083 123.225 95.1443 124.037 93.7524 124.037C92.3605 124.037 123.099 84.9469 138.642 65.4018C137.83 68.1856 136.45 74.2057 137.424 76.0152C138.642 78.2771 134.466 80.017 133.423 80.887C132.379 81.7569 115.501 103.158 119.851 124.037C124.201 144.916 135.336 172.929 158.129 173.103C180.922 173.277 209.283 154.834 204.411 122.819C199.539 90.8045 192.232 80.887 175.181 72.3614C161.54 65.5409 148.038 70.3315 142.992 73.5793C142.586 72.3614 142.018 69.9255 142.992 69.9255C144.21 69.9255 144.906 68.0118 144.558 65.4018C144.21 62.7918 138.642 48.8725 138.642 47.4805C138.642 46.0886 145.95 46.6106 145.776 38.781C145.762 38.1687 145.686 37.6778 145.555 37.2929M72.3514 80.887C73.5693 79.2631 75.6572 76.0152 74.2653 76.0152C72.8734 76.0152 71.5974 74.3913 71.1335 73.5793C73.1054 72.8253 77.1188 71.5262 77.3972 72.3614C77.7451 73.4054 76.7012 77.0591 78.2671 76.0152C79.8331 74.9713 133.423 52.1783 134.292 52.0043C134.988 51.8651 132.379 48.9305 130.987 47.4805C130.291 45.9726 129.525 42.9566 132.031 42.9566C134.918 42.9566 144.014 32.7554 145.555 37.2929M145.555 37.2929C145.071 33.7087 147.537 29.8722 147.355 29.3242C147.282 29.1073 147.096 28.0471 147.077 26.7599M147.077 26.7599C147.05 24.7932 147.415 22.2965 149.181 21.4684C152.105 20.0982 158.316 20.555 158.773 20.555C159.23 20.555 161.33 22.93 160.052 23.6608C158.773 24.3916 151.648 25.305 150.826 24.8483C150.004 24.3916 149.181 25.3051 149.181 27.3146C149.181 29.3242 147.903 37.9107 147.355 37.9107C146.807 37.9107 147.15 29.6896 145.071 28.5021C142.992 27.3146 128.72 26.1271 128.72 27.3146C128.72 28.5021 135.023 37.9107 135.754 37.9107C136.484 37.9107 134.814 41.1078 133.423 40.4684C132.031 39.829 123.879 25.4877 122.965 24.8483C122.052 24.2089 118.033 21.4684 115.475 21.4684C112.917 21.4684 96.2011 20.4637 96.3837 18.4541C96.5664 16.4445 96.3837 15.0742 97.9366 15.0742C99.4895 15.0742 117.85 18.4541 118.763 18.4541C119.677 18.4541 119.768 21.4684 118.763 21.4684C117.759 21.4684 119.586 19.0019 120.59 19.1846C121.595 19.3673 126.071 23.6608 126.985 23.6608C127.715 23.6608 140.684 25.7268 147.077 26.7599Z" stroke="#6D024C" stroke-width="2.2" stroke-linecap="round"/>
<path d="M80.8783 83.322C83.4881 81.0603 79.4863 79.3205 79.4863 81.7563C79.4863 84.1922 90.4478 116.728 89.5779 118.294C88.8819 119.547 86.62 120.208 85.576 120.382" stroke="#6D024C" stroke-width="2.2" stroke-linecap="round"/>
<path d="M76.8752 71.4923C76.7012 68.8824 72.6994 61.0524 73.7434 60.3566C74.7873 59.6608 77.2849 58.6579 75.9211 58.5959C74.5574 58.5339 68.6686 61.4472 67.6148 61.5092C66.561 61.5711 57.0149 60.2075 57.0149 59.7116C57.0149 59.2157 54.1014 58.2859 57.8827 51.9632C61.664 45.6404 64.5154 52.2732 67.6148 51.9632C70.7142 51.6531 80.6322 49.2975 82.1819 49.4834C83.7316 49.6694 87.3269 53.2647 85.9012 53.6986C84.4755 54.1325 68.3415 59.402 68.3586 60.3566C68.3758 61.3112 68.7306 62.8728 69.5984 63.0588C70.4662 63.2447 75.3468 72.171 73.7434 72.6049" stroke="#6D024C" stroke-width="2.2" stroke-linecap="round"/>
<path d="M133.763 141.644C121.098 118.707 134.362 98.8612 140.146 89.5867C141.542 89.5867 150.817 121 151.415 122.695C152.013 124.391 160.789 125.588 164.479 125.588C168.169 125.588 164.479 113.82 161.587 113.122C158.695 112.424 155.404 117.111 153.21 116.512C151.016 115.914 146.329 92.279 146.03 90.1847C145.731 88.0905 142.24 86.6946 144.733 84.8994C159.792 76.4226 169.665 83.0047 178.042 86.6946C186.419 90.3845 192.901 102.052 194.397 125.588C195.893 149.123 173.953 160.891 168.967 162.586C163.98 164.282 146.429 164.581 133.763 141.644Z" stroke="#6D024C" stroke-width="2.2" stroke-linecap="round"/>
<defs>
<linearGradient id="paint0_linear_4401_44750" x1="97.9277" y1="35.7402" x2="97.9277" y2="125.743" gradientUnits="userSpaceOnUse">
<stop stop-color="#FF948B"/>
<stop offset="1" stop-color="#FF78A9"/>
</linearGradient>
<linearGradient id="paint1_linear_4401_44750" x1="65.7802" y1="47.9004" x2="65.7802" y2="60.0347" gradientUnits="userSpaceOnUse">
<stop stop-color="#FF948B"/>
<stop offset="1" stop-color="#FF78A9"/>
</linearGradient>
<linearGradient id="paint2_linear_4401_44750" x1="102.904" y1="13.6719" x2="102.904" y2="19.8658" gradientUnits="userSpaceOnUse">
<stop stop-color="#FF948B"/>
<stop offset="1" stop-color="#FF78A9"/>
</linearGradient>
<linearGradient id="paint3_linear_4401_44750" x1="150.034" y1="18.9453" x2="150.034" y2="23.1446" gradientUnits="userSpaceOnUse">
<stop stop-color="#FF948B"/>
<stop offset="1" stop-color="#FF78A9"/>
</linearGradient>
<linearGradient id="paint4_linear_4401_44750" x1="42.7364" y1="67.9609" x2="42.7364" y2="159.822" gradientUnits="userSpaceOnUse">
<stop stop-color="#FF948B"/>
<stop offset="1" stop-color="#FF78A9"/>
</linearGradient>
<linearGradient id="paint5_linear_4401_44750" x1="156.701" y1="67.9609" x2="156.701" y2="171.923" gradientUnits="userSpaceOnUse">
<stop stop-color="#FF948B"/>
<stop offset="1" stop-color="#FF78A9"/>
</linearGradient>
</defs>
</svg>
