<svg width="135" height="84" viewBox="0 0 135 84" fill="none" xmlns="http://www.w3.org/2000/svg">
<g id="Group">
<path id="Vector" d="M50.5833 16.9725C50.5113 16.9965 50.3133 17.2005 50.3793 17.3205L54.8403 31.4355L55.7643 31.4505L93.1053 14.9415C93.7923 14.2725 93.1593 13.9125 93.0063 13.4025C92.2683 10.9785 91.5483 8.37746 90.6363 6.02246C90.2763 5.09246 90.2163 4.47746 89.1453 4.36346C86.1153 4.04246 81.8133 4.86746 78.9723 4.33646C78.2403 4.19846 77.2323 3.17846 77.2293 2.46446C77.2293 2.15546 77.5713 2.18846 77.6163 2.08046C78.0393 1.11746 77.8563 0.781462 79.2333 0.622462C81.6213 0.343462 87.1353 0.409462 89.5893 0.616462C93.7383 0.970462 93.6633 3.94946 94.8363 7.06946C95.2353 8.12846 95.5743 8.84846 95.9673 9.98846C98.6523 17.7405 101.199 25.7535 103.983 33.4725C104.067 33.7065 104.166 34.6305 104.214 34.6665C104.346 34.7715 106.134 34.2615 106.536 34.2255C111.135 33.7935 116.073 34.1415 120.291 36.0645C135.003 42.7665 139.68 61.5135 129.705 74.1945C122.586 83.2455 109.404 86.2095 99.0543 81.0015C97.1733 80.0535 94.1253 77.8185 92.6553 76.3005C80.8683 64.1685 84.1773 45.4935 98.3073 37.0965C98.7333 36.8445 100.338 36.2745 100.44 35.9145C99.4353 33.0915 98.6943 30.1395 97.6833 27.3225C97.5633 26.9865 97.3113 26.2365 96.9603 26.4435L69.5853 53.8305C69.4473 54.3225 70.3083 55.5195 70.4853 56.1705C71.3793 59.4675 70.5513 63.1125 68.0433 65.4795C67.5843 65.9115 66.2463 66.5175 66.2943 67.1205C66.8943 68.0175 67.8513 72.7785 68.4183 73.2345C69.3843 74.0145 74.1873 72.2745 74.8923 74.5605C75.3513 76.0545 74.3313 76.9575 72.9333 77.1195C70.9863 77.3445 62.2233 77.4405 60.4893 77.1135C59.1153 76.8525 58.4073 75.3795 59.1453 74.1315C59.2683 73.9245 60.0303 73.3695 60.1833 73.3695H64.0833C64.1343 73.3695 64.2633 73.2015 64.2903 73.1205C64.3743 72.8595 62.8923 68.0415 62.6643 67.8885C62.5143 67.7895 60.4953 67.7775 59.8923 67.6605C57.4683 67.1835 54.8703 65.2095 53.7423 63.0105C53.5173 62.5755 53.0403 60.8325 52.7613 60.6915C52.5723 60.5955 49.6473 60.5445 49.4103 60.6135C49.2183 60.6705 48.7683 64.0005 48.6423 64.5285C47.8113 67.9935 45.7803 71.9415 43.4583 74.6445C26.4393 94.4625 -5.49568 77.9595 0.813321 52.8465C5.40332 34.5795 26.5143 28.3245 41.0613 40.2885C41.3703 40.5435 42.1473 41.4975 42.4533 41.3925L51.2043 34.1625L51.5313 33.4335L46.2873 16.9875C45.9423 16.7625 42.1353 17.1645 41.2023 16.8975C39.1833 16.3215 39.4683 13.3275 41.5833 13.0665C45.6183 12.5715 50.6343 13.4295 54.7743 13.0725C56.1303 13.5345 56.9553 15.1485 55.7613 16.2945C55.5963 16.4535 54.7983 16.9665 54.6333 16.9665C53.8503 16.9665 51.0783 16.8105 50.5833 16.9665V16.9725ZM94.5963 18.7875L56.5293 35.2935L60.9333 49.3755C61.9773 49.6635 62.9523 49.4325 64.0443 49.7145C64.6443 49.8705 65.3523 50.3985 65.8203 50.6385C66.4293 50.9565 66.9363 51.1155 67.4553 50.6355C67.7343 50.3775 68.2953 49.8015 68.6073 49.4715C76.1373 41.4915 83.9733 33.7185 91.7133 25.9155C92.5203 25.1025 93.4413 23.8185 94.3083 23.0445C95.0643 22.3695 95.5353 22.7265 95.7363 22.5345C96.0603 22.2255 95.7813 20.3835 95.6613 20.2755C95.5923 20.2125 95.1243 20.4915 95.0643 20.4255C95.0073 20.3625 94.7853 18.9135 94.5993 18.7905L94.5963 18.7875ZM52.5753 37.5495L44.6583 44.3565C44.5233 45.2055 45.3453 45.8295 45.6843 46.4715C46.8873 48.7365 47.8593 51.0885 48.4623 53.5935C48.6423 54.3465 48.6543 57.0015 49.5363 57.1695C49.9863 57.2565 52.7103 57.2265 52.9923 57.0345C53.2953 56.8305 53.6133 55.4535 53.8413 55.0335C54.3693 54.0645 55.2873 52.9425 56.0733 52.1655C56.4333 51.8115 57.3153 51.3855 57.4023 50.9415C57.4503 50.7015 56.9583 48.7185 56.8503 48.3495C56.6133 47.5365 56.1123 46.5765 55.8543 45.7455C55.1553 43.4775 54.4593 40.2795 53.5083 38.1915C53.3193 37.7775 53.0643 37.4385 52.5633 37.5525L52.5753 37.5495ZM38.1513 45.1155C38.4363 44.8545 39.3303 44.1525 39.1923 43.8285C38.9613 43.2855 34.8033 40.4925 34.0443 40.1145C19.7583 33.0105 2.83832 44.5515 4.02632 60.2325C4.60532 67.8855 9.65432 74.7465 16.6233 77.9355C22.0653 80.4255 30.3303 79.5765 35.5353 76.5135C39.5163 74.1705 43.3983 69.2055 44.6823 64.7775C44.8713 64.1295 45.5853 61.2225 45.2733 60.8385C44.9133 60.3975 44.3013 60.7815 43.8393 60.7815C37.2663 60.8145 30.6123 60.9075 24.0813 60.5775C22.5603 59.8725 22.4913 58.2165 23.6523 57.0915C27.9363 52.9395 33.6813 49.2045 38.1513 45.1125V45.1155ZM119.316 40.1205C117.009 38.9985 113.67 38.2935 111.042 38.2665C110.019 38.2545 107.583 38.2785 106.677 38.4165C105.363 38.6145 106.155 39.2325 106.245 39.6165C107.031 43.0425 108.513 46.9815 109.656 50.4555C110.364 52.6125 111.897 55.8255 112.278 57.8865C112.536 59.2875 112.305 60.2745 110.898 60.7875C109.692 61.2285 108.636 60.5265 108.225 59.3865C107.73 58.0125 107.454 56.0985 107.025 54.7365C106.287 52.3935 105.243 50.0865 104.583 47.7285C104.439 47.2125 104.487 46.3995 104.37 46.0155C104.313 45.8325 104.01 46.0275 103.905 45.8295C103.806 45.6435 103.806 44.9145 103.683 44.5785C103.272 43.4235 102.738 42.2895 102.333 41.1315C102.117 40.5105 102.417 39.5475 101.241 39.8715C100.821 39.9885 98.3823 41.4765 97.9203 41.8125C87.4773 49.4475 86.4633 64.8165 95.7333 73.8315C104.523 82.3815 119.382 80.8185 126.711 71.3115C128.907 68.4615 129.048 66.8505 130.161 63.7395C130.23 63.5475 130.536 63.6225 130.614 63.2595C132.525 54.0645 127.572 44.1375 119.316 40.1235V40.1205ZM36.3513 51.1155C35.5533 51.7725 30.0753 56.1225 29.9763 56.5305C29.8413 57.0945 30.5763 57.1455 30.9273 57.1845C35.2803 57.6495 40.4493 56.8155 44.8923 57.1845C45.1623 57.1965 45.5313 56.9655 45.6333 56.7225C46.0773 55.6665 44.6013 51.7785 44.3193 50.5425C43.8573 50.0745 42.6063 47.0685 42.2583 46.9005C42.0843 46.8165 41.9373 46.8075 41.7483 46.8285C41.1363 46.8915 37.1643 50.4465 36.3483 51.1185L36.3513 51.1155ZM67.1763 58.8405C67.1763 55.8645 64.7643 53.4525 61.7883 53.4525C58.8123 53.4525 56.4003 55.8645 56.4003 58.8405C56.4003 61.8165 58.8123 64.2285 61.7883 64.2285C64.7643 64.2285 67.1763 61.8165 67.1763 58.8405Z" fill="#FCF6F9"/>
</g>
</svg>
