<svg width="227" height="184" viewBox="0 0 227 184" fill="none" xmlns="http://www.w3.org/2000/svg">
<path d="M6.52204 64.5939C6.24011 63.8884 7.36779 61.0707 10.7507 60.7891C13.9935 59.3248 16.6136 60.7891 19.0368 63.3312C21.4601 65.8732 34.6366 75.2961 45.2385 79.9912C55.8403 84.6863 71.2886 76.6592 78.407 71.662C85.5254 66.6647 93.2495 57.2734 95.067 54.6991C96.8845 52.1247 103.246 51.9729 105.063 54.6991C106.88 57.4252 98.8534 64.5939 93.2495 71.662C87.6457 78.73 82.4963 86.3531 79.3157 100.741C76.1352 115.129 85.6578 132.092 87.4943 135.576C88.9635 138.363 86.8821 140.448 85.6578 141.142C59.5082 156.396 36.4597 146.003 25.145 141.142C13.8302 136.281 5.61661 121.949 1.09071 106.36C-3.43518 90.7706 7.5443 70.7394 8.2148 69.9012C8.8853 69.0631 11.4835 71.0746 10.7507 72.4994C4.12579 84.7626 4.7785 97.4757 10.7507 113.224C15.73 126.354 32.5989 136.623 33.4446 136.341C34.2903 136.059 33.7265 108.855 35.8408 104.062C37.9552 99.2696 34.0084 93.3495 30.9074 90.5304C27.8064 87.7113 6.80397 65.2993 6.52204 64.5939Z" fill="url(#paint0_linear_4401_44775)"/>
<path d="M54.1526 76.1918C44.4179 76.1918 37.6699 66.2358 37.6699 56.1692C37.6699 47.8728 42.9798 36.9213 54.1526 37.8063C65.3254 38.6912 69.7503 48.7578 70.6353 57.497C71.5202 66.2361 63.8873 76.1918 54.1526 76.1918Z" fill="url(#paint1_linear_4401_44775)"/>
<path d="M35.1516 51.2786C34.2508 51.7295 22.9562 58.3832 19.8588 60.9268C18.4282 61.5671 18.3367 57.434 19.3376 56.4331C20.3385 55.4323 33.7003 47.0744 35.4518 46.5239C37.2034 45.9734 36.0524 50.8277 35.1516 51.2786Z" fill="url(#paint2_linear_4401_44775)"/>
<path d="M89.7074 54.3784C89.265 53.493 78.6455 47.0781 72.7459 44.8656C68.7896 43.1267 71.4826 51.9328 72.7459 52.5184C74.0092 53.1041 85.0614 60.9423 86.1676 61.4585C87.2738 61.9747 90.1499 55.2639 89.7074 54.3784Z" fill="url(#paint3_linear_4401_44775)"/>
<path d="M94.7848 121.767C106.605 101.523 100.355 84.6766 96.2794 74.3512C95.8972 72.4553 99.9191 66.9883 100.625 66.9883C101.33 66.9883 106.18 75.0123 107.326 91.7659C108.472 108.519 96.9795 123.907 96.6615 124.67C96.3436 125.434 93.8636 127.278 93.1006 126.197C92.3375 125.116 93.3549 123.272 94.7848 121.767Z" fill="url(#paint4_linear_4401_44775)"/>
<path d="M151.196 146.14C150.214 148.429 149.233 150.065 154.467 150.066C157.239 150.066 156.53 148.782 156.53 147.4C156.53 146.019 157.411 143.821 157.411 141.623C157.411 139.425 159.669 130.697 160.297 129.567C160.925 128.437 161.176 118.39 162.432 117.574C163.688 116.757 165.007 109.473 165.258 109.034C165.509 108.594 170.407 97.4799 171.537 96.0357C172.667 94.5915 172.416 101.687 171.537 107.024C170.658 112.362 170.532 119.206 170.407 120.713C170.281 122.22 167.33 124.544 167.707 127.809C168.083 131.074 166.765 141.309 166.639 144.951C166.514 148.593 167.267 147.965 168.837 147.965C170.407 147.965 173.044 150.066 174.363 150.066C175.681 150.066 175.493 149.158 177.126 148.782C178.758 148.405 175.87 145.705 174.802 145.454C173.735 145.202 172.479 143.507 171.537 142.063C170.595 140.619 172.291 136.663 174.363 132.769C176.435 128.876 177.816 120.588 177.816 119.206C177.816 117.825 177.628 115.941 179.261 111.985C180.893 108.029 185.037 94.2775 185.414 89.1913C185.791 84.1051 182.06 80.2119 182.06 74.8118C182.06 69.4116 183.342 65.5184 183.342 64.5138C183.342 63.5091 182.899 60.7462 186.67 61.5625C190.441 62.3788 198.664 59.0508 200.359 58.3601C202.054 57.6693 204.189 57.7321 204.943 57.481C205.696 57.2298 207.643 44.5457 207.643 43.2373C207.643 41.9289 208.773 42.2851 213.294 41.8456C217.815 41.406 221.834 35.2939 221.897 34.5616C221.96 33.8293 223.529 33.3684 218.443 31.2335C213.357 29.0985 201.05 31.3591 200.359 32.8661C199.668 34.3731 205.194 39.2709 205.257 40.0064C205.32 40.7418 198.608 52.9072 197.958 52.9072C197.307 52.9072 193.556 52.535 192.355 52.9072C191.155 53.2794 189.157 52.535 187.997 52.535H179.733C178.891 52.535 175.989 51.0515 175.537 50.9869C175.085 50.9223 174.439 48.4683 175.149 48.7912C175.86 49.1141 176.829 47.756 177.41 47.756C177.991 47.756 178.766 46.4663 178.766 45.8205C178.766 45.1747 179.928 45.6268 180.574 45.8205C181.22 46.0142 180.574 43.9477 180.574 43.2373C180.574 42.5269 180.962 41.9457 182.06 41.2353C183.157 40.5249 182.899 37.3605 182.899 35.2939C182.899 33.2273 176.247 30.7728 174.439 30.7082C172.631 30.6436 168.562 35.3574 168.562 35.7449C168.562 36.1323 165.914 39.2314 164.558 40.0064C163.202 40.7813 162.481 47.3039 162.481 47.756C162.481 48.2081 162.04 49.4351 164.558 47.756C167.077 46.0769 163.977 51.8246 163.396 52.535C162.815 53.2453 154.467 55.1182 152.831 54.3869C151.196 48.4987 143.509 43.5927 143.018 45.2282C142.527 46.8638 147.925 58.6396 146.78 60.2752C145.635 61.9107 148.088 65.6729 145.635 70.2524C143.182 74.8319 145.471 81.7011 146.78 82.1918C148.088 82.6824 149.887 79.9019 151.196 79.9019C152.504 79.9019 154.467 86.9348 154.467 88.2432C154.467 89.5516 152.831 95.276 154.467 95.9302C155.775 96.4536 156.974 94.2947 157.411 93.1498V88.2432C157.683 83.0098 158.228 72.2485 158.228 71.0709C158.228 69.599 162.154 75.9767 162.481 79.9019C162.808 83.8272 157.574 96.5839 157.411 97.8924C157.247 99.2008 156.593 110.649 156.102 112.448C155.612 114.247 152.831 121.444 152.831 125.533C152.831 129.621 152.177 143.85 151.196 146.14Z" fill="url(#paint5_linear_4401_44775)"/>
<path d="M28.3107 134.194C24.2491 129.697 7.27764 114.612 11.4842 87.9213C14.1815 79.1877 16.4659 76.2803 14.8045 74.965C13.1431 73.6497 12.0355 74.7579 10.3741 78.9807C8.7127 83.2034 -1.35262 104.568 9.60636 122.833C20.5653 141.098 33.0698 153.883 60.4673 153.321C87.8647 152.759 93.7657 143.065 91.6582 139.271C89.5507 135.478 79.7157 114.543 84.3522 101.617C88.9887 88.6911 97.1377 73.9386 104.303 68.0376C111.469 62.1366 112.171 57.4997 108.237 57.2187C104.303 56.9377 100.51 56.7984 97.1377 62.418C93.7657 68.0376 74.3767 83.2126 66.0873 84.3366C57.7978 85.4606 43.0453 76.6079 42.2023 62.418C41.3593 48.2282 51.1943 41.9057 56.5333 42.1867C61.8723 42.4677 74.2362 45.3759 75.5007 60.1704C76.7652 74.965 55.6903 87.8494 48.9463 84.3366C42.2023 80.8239 21.9703 65.2284 20.7058 65.0879C19.4413 64.9474 7.49885 65.2284 12.8378 70.9889C18.1768 76.7494 37.8468 96.2789 38.2683 98.2459C38.6898 100.213 41.0293 105.809 39.7931 111.588C37.6972 121.384 37.5557 143.171 39.3923 142.795C42.8841 142.082 38.1278 140.535 35.1773 139.271C32.8169 138.26 29.6161 135.465 28.3107 134.194Z" stroke="#6D024C" stroke-width="2.2"/>
<path d="M40.7478 52.1306C40.7478 49.3196 36.0316 53.1276 30.7713 56.2115C30.3467 56.4626 25.9096 58.8579 23.5069 60.9779C21.1042 63.0979 24.5669 64.7939 25.2736 64.7939C25.9803 64.7939 30.7713 59.8472 33.4003 59.2819C35.4863 58.5563 40.7478 54.9415 40.7478 52.1306Z" stroke="#6D024C" stroke-width="2.2"/>
<path d="M93.8134 58.0581C92.4295 56.328 84.818 52.4074 76.5145 49.0625C76.1685 49.0625 75.4766 49.4316 75.4766 50.9082C75.4766 52.7538 76.5145 56.7898 77.6678 56.9051C78.821 57.0205 89.431 65.4393 91.0456 66.0159C92.6602 66.5925 95.1973 59.7883 93.8134 58.0581Z" stroke="#6D024C" stroke-width="2.2"/>
<path d="M103.425 118.064C109.472 107.739 106.375 94.4649 100.918 78.5349C100.583 77.5509 103.425 74.4137 104.161 72.3452C104.898 70.2766 106.857 73.3481 109.678 81.309C112.498 89.2699 112.002 102.93 111.084 107.56C108.713 119.518 100.918 130.453 98.4104 130.601C95.903 130.748 97.3779 128.388 103.425 118.064Z" stroke="#6D024C" stroke-width="2.2"/>
<path d="M159.999 96.3857C159.024 98.58 157.074 99.0665 157.074 96.3857C157.074 93.7048 156.831 86.3109 155.612 84.1171C154.393 81.9233 152.605 83.0602 151.793 84.1171C150.98 85.1739 147.893 84.9301 148.137 81.9238C148.38 78.9175 149.924 72.9051 150.087 71.7676C150.249 70.63 150.737 65.1865 150.737 63.8052C150.737 62.4239 147.324 50.8869 146.755 49.5056C146.187 48.1243 152.037 48.5302 156.018 56.1677C157.643 58.3616 158.131 58.4428 159.999 58.1178C161.868 57.7928 169.181 54.2989 169.262 52.4302C169.343 50.5614 168.206 50.3176 167.718 51.3739C167.231 52.4302 165.85 51.2926 166.256 48.3675C166.662 45.4425 169.75 44.0612 169.262 43.4924C168.775 42.9237 166.708 43.8643 167.718 44.1416C168.729 44.4189 171.7 42.8416 171.781 41.1353C171.862 39.429 174.219 35.0413 176.981 34.7163C179.744 34.3913 186.569 36.5043 186.731 41.1353C186.731 43.4924 184.828 44.7406 184.443 45.4261C184.057 46.1117 184.828 49.3251 184.057 49.1965C183.286 49.068 182.3 48.7681 182.3 49.1965C182.3 49.625 182.129 50.6104 181.7 50.7818C181.272 50.9532 180.629 50.4819 180.715 50.7818C180.801 51.0817 180.544 51.853 179.772 51.9815C179.001 52.11 177.716 52.9241 178.915 54.2095C180.115 55.4948 182.097 56.5711 184.057 55.3903C186.016 54.2095 190.78 56.1677 192.448 56.1677C193.781 56.1677 199.276 56.1677 201.856 56.1677C204.278 52.3436 209.05 44.4547 208.764 43.4924C208.407 42.2896 205.667 39.7886 204.357 37.6449C203.047 35.5011 210.789 33.7147 214.6 33.8338C218.411 33.9529 226.748 34.1545 225.437 37.6449C224.127 41.1353 219.84 45.4261 217.22 45.4261C214.6 45.4261 211.146 45.5527 211.146 47.5291C211.146 49.5056 209.478 57.6524 208.764 59.5579C208.049 61.4635 207.216 60.9871 205.786 61.3444C204.357 61.7017 195.187 65.2746 192.448 64.9173C189.708 64.56 186.731 63.7263 186.731 66.3464C186.731 68.9666 185.064 77.0652 185.302 78.6134C185.54 80.1617 186.731 83.8537 186.731 85.6401C186.731 87.4266 189.113 88.948 188.994 92.6669C188.875 96.3857 182.3 114.104 182.3 116.367C182.3 118.63 180.715 123.513 180.715 127.562C180.715 131.612 175.179 140.782 175.059 142.807C174.94 144.831 176.846 147.571 177.799 148.404C178.751 149.238 180.715 149.715 180.715 150.777C180.715 151.839 180.24 152.589 179.428 152.776C178.616 152.963 176.301 153.213 175.68 152.776C175.059 152.339 172.87 151.652 171.246 151.214C169.622 150.777 170.121 147.967 170.121 146.405C170.121 144.843 171.246 136.973 171.246 131.852C171.246 126.73 174.431 124.544 174.556 117.673C174.681 110.802 176.305 101.433 175.993 100.621C175.68 99.809 174.556 99.0595 173.869 101.433C173.182 103.807 168.31 109.99 168.31 112.926C168.31 115.862 164.875 120.609 164.875 122.795C164.875 124.981 163.75 133.476 162.126 137.785C160.502 142.095 160.565 148.029 160.627 149.153C160.69 150.278 161.814 152.776 160.627 152.776C159.44 152.776 156.38 153.65 155.256 153.213C154.131 152.776 152.82 152.089 153.382 151.214C153.944 150.34 155.63 147.092 155.63 146.405C155.63 145.718 157.129 135.349 156.38 131.852C155.63 128.354 158.254 119.297 158.816 117.673C159.378 116.049 160.815 104.306 160.815 102.245C160.815 100.184 164.25 91.6891 164.312 90.8771C164.375 90.0651 167.123 85.3181 164.875 79.6966C162.626 74.0751 161.564 72.41 161.564 75.5117C161.564 78.6134 160.377 90.6897 160.815 91.4393C161.252 92.1888 164.063 94.8626 163.625 95.6241C163.188 96.3857 161.183 97.6469 159.999 96.3857Z" stroke="#6D024C" stroke-width="2.2"/>
<defs>
<linearGradient id="paint0_linear_4401_44775" x1="52.6626" y1="52.7109" x2="52.6626" y2="149.136" gradientUnits="userSpaceOnUse">
<stop stop-color="#FF8B8D"/>
<stop offset="1" stop-color="#FF9BF7"/>
</linearGradient>
<linearGradient id="paint1_linear_4401_44775" x1="54.1875" y1="37.7559" x2="54.1875" y2="76.1918" gradientUnits="userSpaceOnUse">
<stop stop-color="#FF8B8D"/>
<stop offset="1" stop-color="#FF9BF7"/>
</linearGradient>
<linearGradient id="paint2_linear_4401_44775" x1="27.518" y1="46.4805" x2="27.518" y2="60.9938" gradientUnits="userSpaceOnUse">
<stop stop-color="#FF8B8D"/>
<stop offset="1" stop-color="#FF9BF7"/>
</linearGradient>
<linearGradient id="paint3_linear_4401_44775" x1="80.2126" y1="44.6387" x2="80.2126" y2="61.4868" gradientUnits="userSpaceOnUse">
<stop stop-color="#FF8B8D"/>
<stop offset="1" stop-color="#FF9BF7"/>
</linearGradient>
<linearGradient id="paint4_linear_4401_44775" x1="100.123" y1="66.9883" x2="100.123" y2="126.528" gradientUnits="userSpaceOnUse">
<stop stop-color="#FF8B8D"/>
<stop offset="1" stop-color="#FF9BF7"/>
</linearGradient>
<linearGradient id="paint5_linear_4401_44775" x1="182.58" y1="30.3594" x2="182.58" y2="150.066" gradientUnits="userSpaceOnUse">
<stop stop-color="#FF8B8D"/>
<stop offset="1" stop-color="#FF9BF7"/>
</linearGradient>
</defs>
</svg>
