<svg width="30" height="29" viewBox="0 0 30 29" fill="none" xmlns="http://www.w3.org/2000/svg">
<path fill-rule="evenodd" clip-rule="evenodd" d="M14.725 0C6.58944 0 0 6.53817 0 14.6104C0 21.0756 4.21503 26.5362 10.0682 28.4721C10.8045 28.5999 11.0806 28.1616 11.0806 27.7781C11.0806 27.4311 11.0622 26.2805 11.0622 25.0569C7.3625 25.7326 6.40538 24.162 6.11088 23.3402C5.94522 22.9201 5.22738 21.6234 4.60156 21.2764C4.08619 21.0025 3.34994 20.3268 4.58316 20.3085C5.74275 20.2902 6.57103 21.3678 6.84713 21.8061C8.17238 24.0159 10.2891 23.395 11.1358 23.0114C11.2646 22.0618 11.6512 21.4226 12.0745 21.0573C8.79819 20.692 5.37463 19.4319 5.37463 13.8434C5.37463 12.2545 5.94522 10.9396 6.88394 9.91683C6.73669 9.55157 6.22131 8.054 7.03119 6.04507C7.03119 6.04507 8.26441 5.66154 11.0806 7.54264C12.2586 7.2139 13.5102 7.04954 14.7618 7.04954C16.0134 7.04954 17.2651 7.2139 18.4431 7.54264C21.2592 5.64328 22.4924 6.04507 22.4924 6.04507C23.3023 8.054 22.7869 9.55157 22.6397 9.91683C23.5784 10.9396 24.149 12.2362 24.149 13.8434C24.149 19.4501 20.707 20.692 17.4307 21.0573C17.9645 21.5139 18.4247 22.3905 18.4247 23.7602C18.4247 25.7144 18.4062 27.285 18.4062 27.7781C18.4062 28.1616 18.6823 28.6182 19.4186 28.4721C25.235 26.5362 29.45 21.0573 29.45 14.6104C29.45 6.53817 22.8606 0 14.725 0Z" fill="#1B1F23"/>
</svg>
