<svg width="317" height="84" viewBox="0 0 317 84" fill="none" xmlns="http://www.w3.org/2000/svg">
<g clip-path="url(#clip0_2079_11292)">
<path d="M50.5833 16.7142C50.5113 16.7382 50.3133 16.9422 50.3793 17.0622L54.8403 31.1772L55.7643 31.1922L93.1053 14.6832C93.7923 14.0142 93.1593 13.6542 93.0063 13.1442C92.2683 10.7202 91.5483 8.11916 90.6363 5.76416C90.2763 4.83416 90.2163 4.21916 89.1453 4.10516C86.1153 3.78416 81.8133 4.60916 78.9723 4.07816C78.2403 3.94016 77.2323 2.92016 77.2293 2.20616C77.2293 1.89716 77.5713 1.93016 77.6163 1.82216C78.0393 0.859161 77.8563 0.523161 79.2333 0.364161C81.6213 0.0851612 87.1353 0.151161 89.5893 0.358161C93.7383 0.712161 93.6633 3.69116 94.8363 6.81116C95.2353 7.87016 95.5743 8.59016 95.9673 9.73016C98.6523 17.4822 101.199 25.4952 103.983 33.2142C104.067 33.4482 104.166 34.3722 104.214 34.4082C104.346 34.5132 106.134 34.0032 106.536 33.9672C111.135 33.5352 116.073 33.8832 120.291 35.8062C135.003 42.5082 139.68 61.2552 129.705 73.9362C122.586 82.9872 109.404 85.9512 99.0543 80.7432C97.1733 79.7952 94.1253 77.5602 92.6553 76.0422C80.8683 63.9102 84.1773 45.2352 98.3073 36.8382C98.7333 36.5862 100.338 36.0162 100.44 35.6562C99.4353 32.8332 98.6943 29.8812 97.6833 27.0642C97.5633 26.7282 97.3113 25.9782 96.9603 26.1852L69.5853 53.5722C69.4473 54.0642 70.3083 55.2612 70.4853 55.9122C71.3793 59.2092 70.5513 62.8542 68.0433 65.2212C67.5843 65.6532 66.2463 66.2592 66.2943 66.8622C66.8943 67.7592 67.8513 72.5202 68.4183 72.9762C69.3843 73.7562 74.1873 72.0162 74.8923 74.3022C75.3513 75.7962 74.3313 76.6992 72.9333 76.8612C70.9863 77.0862 62.2233 77.1822 60.4893 76.8552C59.1153 76.5942 58.4073 75.1212 59.1453 73.8732C59.2683 73.6662 60.0303 73.1112 60.1833 73.1112H64.0833C64.1343 73.1112 64.2633 72.9432 64.2903 72.8622C64.3743 72.6012 62.8923 67.7832 62.6643 67.6302C62.5143 67.5312 60.4953 67.5192 59.8923 67.4022C57.4683 66.9252 54.8703 64.9512 53.7423 62.7522C53.5173 62.3172 53.0403 60.5742 52.7613 60.4332C52.5723 60.3372 49.6473 60.2862 49.4103 60.3552C49.2183 60.4122 48.7683 63.7422 48.6423 64.2702C47.8113 67.7352 45.7803 71.6832 43.4583 74.3862C26.4393 94.2042 -5.49568 77.7012 0.813321 52.5882C5.40332 34.3212 26.5143 28.0662 41.0613 40.0302C41.3703 40.2852 42.1473 41.2392 42.4533 41.1342L51.2043 33.9042L51.5313 33.1752L46.2873 16.7292C45.9423 16.5042 42.1353 16.9062 41.2023 16.6392C39.1833 16.0632 39.4683 13.0692 41.5833 12.8082C45.6183 12.3132 50.6343 13.1712 54.7743 12.8142C56.1303 13.2762 56.9553 14.8902 55.7613 16.0362C55.5963 16.1952 54.7983 16.7082 54.6333 16.7082C53.8503 16.7082 51.0783 16.5522 50.5833 16.7082V16.7142ZM94.5963 18.5292L56.5293 35.0352L60.9333 49.1172C61.9773 49.4052 62.9523 49.1742 64.0443 49.4562C64.6443 49.6122 65.3523 50.1402 65.8203 50.3802C66.4293 50.6982 66.9363 50.8572 67.4553 50.3772C67.7343 50.1192 68.2953 49.5432 68.6073 49.2132C76.1373 41.2332 83.9733 33.4602 91.7133 25.6572C92.5203 24.8442 93.4413 23.5602 94.3083 22.7862C95.0643 22.1112 95.5353 22.4682 95.7363 22.2762C96.0603 21.9672 95.7813 20.1252 95.6613 20.0172C95.5923 19.9542 95.1243 20.2332 95.0643 20.1672C95.0073 20.1042 94.7853 18.6552 94.5993 18.5322L94.5963 18.5292ZM52.5753 37.2912L44.6583 44.0982C44.5233 44.9472 45.3453 45.5712 45.6843 46.2132C46.8873 48.4782 47.8593 50.8302 48.4623 53.3352C48.6423 54.0882 48.6543 56.7432 49.5363 56.9112C49.9863 56.9982 52.7103 56.9682 52.9923 56.7762C53.2953 56.5722 53.6133 55.1952 53.8413 54.7752C54.3693 53.8062 55.2873 52.6842 56.0733 51.9072C56.4333 51.5532 57.3153 51.1272 57.4023 50.6832C57.4503 50.4432 56.9583 48.4602 56.8503 48.0912C56.6133 47.2782 56.1123 46.3182 55.8543 45.4872C55.1553 43.2192 54.4593 40.0212 53.5083 37.9332C53.3193 37.5192 53.0643 37.1802 52.5633 37.2942L52.5753 37.2912ZM38.1513 44.8572C38.4363 44.5962 39.3303 43.8942 39.1923 43.5702C38.9613 43.0272 34.8033 40.2342 34.0443 39.8562C19.7583 32.7522 2.83832 44.2932 4.02632 59.9742C4.60532 67.6272 9.65432 74.4882 16.6233 77.6772C22.0653 80.1672 30.3303 79.3182 35.5353 76.2552C39.5163 73.9122 43.3983 68.9472 44.6823 64.5192C44.8713 63.8712 45.5853 60.9642 45.2733 60.5802C44.9133 60.1392 44.3013 60.5232 43.8393 60.5232C37.2663 60.5562 30.6123 60.6492 24.0813 60.3192C22.5603 59.6142 22.4913 57.9582 23.6523 56.8332C27.9363 52.6812 33.6813 48.9462 38.1513 44.8542V44.8572ZM119.316 39.8622C117.009 38.7402 113.67 38.0352 111.042 38.0082C110.019 37.9962 107.583 38.0202 106.677 38.1582C105.363 38.3562 106.155 38.9742 106.245 39.3582C107.031 42.7842 108.513 46.7232 109.656 50.1972C110.364 52.3542 111.897 55.5672 112.278 57.6282C112.536 59.0292 112.305 60.0162 110.898 60.5292C109.692 60.9702 108.636 60.2682 108.225 59.1282C107.73 57.7542 107.454 55.8402 107.025 54.4782C106.287 52.1352 105.243 49.8282 104.583 47.4702C104.439 46.9542 104.487 46.1412 104.37 45.7572C104.313 45.5742 104.01 45.7692 103.905 45.5712C103.806 45.3852 103.806 44.6562 103.683 44.3202C103.272 43.1652 102.738 42.0312 102.333 40.8732C102.117 40.2522 102.417 39.2892 101.241 39.6132C100.821 39.7302 98.3823 41.2182 97.9203 41.5542C87.4773 49.1892 86.4633 64.5582 95.7333 73.5732C104.523 82.1232 119.382 80.5602 126.711 71.0532C128.907 68.2032 129.048 66.5922 130.161 63.4812C130.23 63.2892 130.536 63.3642 130.614 63.0012C132.525 53.8062 127.572 43.8792 119.316 39.8652V39.8622ZM36.3513 50.8572C35.5533 51.5142 30.0753 55.8642 29.9763 56.2722C29.8413 56.8362 30.5763 56.8872 30.9273 56.9262C35.2803 57.3912 40.4493 56.5572 44.8923 56.9262C45.1623 56.9382 45.5313 56.7072 45.6333 56.4642C46.0773 55.4082 44.6013 51.5202 44.3193 50.2842C43.8573 49.8162 42.6063 46.8102 42.2583 46.6422C42.0843 46.5582 41.9373 46.5492 41.7483 46.5702C41.1363 46.6332 37.1643 50.1882 36.3483 50.8602L36.3513 50.8572ZM67.1763 58.5822C67.1763 55.6062 64.7643 53.1942 61.7883 53.1942C58.8123 53.1942 56.4003 55.6062 56.4003 58.5822C56.4003 61.5582 58.8123 63.9702 61.7883 63.9702C64.7643 63.9702 67.1763 61.5582 67.1763 58.5822Z" fill="#FCF6F9"/>
<path d="M223.468 43.8628C224.08 43.9558 224.497 44.2918 224.701 44.8798C225.007 45.7528 225.013 48.7978 225.046 49.9348C225.295 57.9868 225.466 67.6018 225.046 75.5968C224.881 78.7288 224.137 81.8008 220.663 82.6138C219.517 82.8838 215.137 82.8508 213.859 82.7218C210.958 82.4248 209.164 79.8268 208.981 77.0998C208.297 66.8278 209.509 55.7938 208.99 45.4438C209.305 42.8698 212.017 44.3728 213.19 43.7938C213.502 43.6408 213.544 43.0078 213.568 42.6718C214.105 34.2808 213.001 25.1158 213.496 16.6378C212.17 13.8808 212.995 11.1628 213.19 8.24077C213.31 6.41977 213.124 3.59077 213.502 1.95277C213.565 1.67077 214.078 0.935775 214.309 0.809775C214.696 0.602775 218.653 0.575775 219.259 0.677775C219.679 0.749775 220.303 1.21477 220.39 1.64677C220.543 5.28577 221.104 8.94277 221.152 12.5848C221.173 14.3008 220.996 15.0868 220.39 16.6378V43.3498C220.357 43.5028 220.495 43.8658 220.621 43.8658C221.452 43.8658 222.715 43.7488 223.471 43.8658L223.468 43.8628ZM217.522 43.6918C217.639 43.6198 217.684 43.0738 217.702 42.8968C218.518 34.4788 217.081 24.7408 217.693 16.1878C219.13 13.7578 218.299 11.6398 218.149 8.98777C218.074 7.66177 218.248 6.24277 218.152 4.93477C218.032 3.27277 217.945 3.16477 216.187 3.43177C216.082 4.44277 215.836 5.55877 215.749 6.59377C215.512 9.43477 215.116 13.3258 216.199 15.8878V43.3408C216.13 43.8268 217.345 43.8058 217.522 43.6948V43.6918ZM221.818 46.7128H212.068C212.053 46.7128 211.843 46.9228 211.843 46.9378V78.1378C211.843 78.2638 213.274 79.6978 213.496 79.7848C213.91 79.9498 219.487 79.9498 220.132 79.8268C220.525 79.7518 221.788 78.8338 221.89 78.5488C222.022 78.1888 222.031 76.7038 222.049 76.1938C222.4 66.6688 221.764 56.9278 222.049 47.3788C222.07 47.1748 222.028 46.7788 221.815 46.7128H221.818Z" fill="#FCF6F9"/>
<path d="M215.707 48.8548C215.785 48.9808 215.698 49.2148 215.782 49.3738C215.842 49.4848 216.31 49.5298 216.205 49.9288L216.193 71.0908C215.995 72.7318 214.429 73.9798 213.634 71.9998V49.6348C213.676 48.7288 215.206 48.0598 215.707 48.8578V48.8548Z" fill="#FCF6F9"/>
<path d="M218.476 49.1488C218.848 48.9568 219.55 49.1758 219.715 49.5688L219.799 71.0968C219.748 72.7078 218.32 73.1278 218.137 71.2468C217.492 64.5688 218.641 56.8678 218.131 50.0818C218.092 49.8748 218.344 49.2178 218.473 49.1518L218.476 49.1488Z" fill="#FCF6F9"/>
<path d="M192.253 1.95452C197.062 6.14851 198.25 13.0395 194.593 18.4365C193.231 20.4495 191.527 21.7635 189.499 22.9785C189.199 34.8135 189.34 46.7295 189.427 58.5615C191.047 59.9535 192.727 60.8745 194.059 62.6295C196.804 66.2415 197.566 72.2445 195.343 76.3005C189.259 87.4065 172.495 84.2235 171.067 71.5215C170.485 66.3495 173.611 61.3965 178.063 58.9845L178.108 22.8105C178.081 22.7085 176.725 22.0845 176.557 21.9645C171.478 18.3165 169.687 11.8695 172.186 6.22652C172.987 4.42052 175.417 1.10852 177.307 0.547515C178.753 0.118515 179.344 1.51952 179.449 2.69252C179.701 5.56052 179.188 8.68951 179.551 11.5815C180.685 12.1365 181.723 12.9945 182.866 13.5255C183.052 13.6125 183.46 13.8195 183.619 13.8405C184.441 13.9515 186.388 12.5025 187.114 12.0045C187.438 11.7855 187.879 11.9865 188.083 11.3235C188.446 8.31751 187.837 4.89151 188.143 1.93352C188.206 1.33652 188.431 0.817515 189.016 0.556515C190.348 -0.0404846 191.353 1.16852 192.259 1.95452H192.253ZM190.993 5.16151C190.735 5.41951 190.993 11.4825 190.993 12.4365C190.993 13.3905 189.328 14.0685 188.701 14.4645C187.558 15.1845 186.199 16.1655 184.894 16.6905C183.334 17.3205 182.35 16.5705 180.985 15.8415C180.379 15.5175 177.613 13.9065 177.274 13.5525C175.891 12.1185 176.446 9.27151 176.287 7.48951C176.065 4.98751 175.06 6.88051 174.634 8.08051C173.389 11.5965 174.232 15.8235 176.908 18.4125C178.378 19.8315 180.685 20.4735 180.946 22.6275L180.925 59.3715C180.625 61.2375 178.804 61.8405 177.559 62.9055C169.447 69.8505 176.629 82.9935 187.207 79.4535C195.148 76.7955 195.769 65.3835 188.581 61.6395C188.281 61.4835 187.963 61.6575 187.612 61.4085C187.144 61.0755 186.55 59.6715 186.481 59.0895L186.499 22.4985C186.832 20.4495 188.857 20.0325 190.243 18.8895C193.561 16.1535 194.539 11.5875 192.94 7.63051C192.787 7.24951 191.59 4.55551 190.987 5.15851L190.993 5.16151Z" fill="#FCF6F9"/>
<path d="M188.944 64.9638C189.58 65.8158 189.631 66.2148 190.114 67.0188C190.801 68.1618 192.394 69.6948 191.959 71.1558C191.668 72.1308 189.637 75.0558 188.983 76.1298C188.539 76.8618 188.569 77.7558 187.321 77.9178C186.154 78.0678 183.751 78.0828 182.533 78.0468C181.894 78.0288 179.776 77.9328 179.398 77.6208L176.014 71.9628C175.432 70.7748 175.45 70.6908 176.026 69.4728C176.467 68.5488 178.57 64.8708 179.164 64.2108C179.443 63.9018 179.845 63.5628 180.256 63.5028C181.408 63.3348 186.178 63.3378 187.321 63.5028C188.272 63.6408 188.494 64.3638 188.941 64.9578L188.944 64.9638ZM188.197 71.9628C188.266 71.8488 188.509 71.8158 188.674 71.4708C189.292 70.1718 188.227 69.5538 187.57 68.5128C187.264 68.0268 186.664 66.4818 186.121 66.3618C185.728 66.2778 181.459 66.3228 181.246 66.4398C180.877 66.6438 179.74 69.0708 179.398 69.6168C179.254 69.8478 178.78 69.8268 178.699 70.5018C178.66 70.8168 178.792 71.4408 178.987 71.6658C179.107 71.8038 179.341 71.7318 179.404 71.7948C179.662 72.0708 180.358 73.7508 180.67 74.2128C180.844 74.4708 181.171 74.9988 181.471 75.0618C181.801 75.1338 186.022 75.1128 186.247 75.0348C186.514 74.9418 187.915 72.4248 188.2 71.9598L188.197 71.9628Z" fill="#FCF6F9"/>
<path d="M291.332 23.2455C291.629 24.1515 298.547 23.0985 299.324 23.9115C300.101 24.7245 299.612 29.0055 299.726 30.3015C299.855 31.7925 300.068 31.0785 301.241 31.3365C303.14 31.7565 305.849 32.6655 307.562 33.5625C314.558 37.2225 318.206 45.9345 316.289 53.5995C316.112 54.3015 315.473 54.9975 315.365 55.3755C315.092 56.3205 315.344 56.4825 314.651 57.5175C313.019 59.9565 312.074 61.1385 309.791 63.0045C309.587 63.1725 309.62 63.5115 309.416 63.6795C308.048 64.7835 304.301 66.4455 302.639 66.6525C301.67 66.7725 300.434 66.4125 299.768 67.3635L299.744 72.7305C299.861 73.1625 301.457 72.8925 301.988 73.0425C302.408 73.1625 303.242 73.9695 303.329 74.4015C303.536 75.4455 303.473 80.7015 303.344 81.9075C303.254 82.7415 302.873 82.9155 302.243 83.3595L278.498 83.4825C276.842 83.2275 276.719 82.8795 276.626 81.3045C276.962 79.0965 276.329 76.2195 276.785 74.1015C276.824 73.9155 277.499 73.0455 277.631 72.9975C278.258 72.7815 279.842 73.2735 280.22 72.7365C280.514 72.3195 280.514 68.5815 280.049 68.3565C279.833 68.2515 279.518 68.3805 279.275 68.2995C279.053 68.2275 279.152 67.9155 278.81 67.8585C277.844 67.6965 277.31 68.1855 276.554 68.1885C275.969 68.1885 275.759 67.8945 275.36 67.8645C271.487 67.5795 267.257 68.0835 263.345 67.8795C263.018 67.8615 261.752 67.7865 261.563 67.7325C261.137 67.6125 261.227 65.3235 261.851 65.3235H280.001C280.016 65.3235 280.226 65.1135 280.226 65.0985V24.8955L280.772 23.6415C282.935 23.4435 285.374 23.8365 287.504 23.6205C287.771 23.5935 288.104 23.5785 288.227 23.2875L288.101 3.52045H280.601C280.541 3.52045 279.59 2.96546 279.554 2.91746C279.257 2.53046 279.275 1.11445 279.626 0.745455C279.743 0.622455 280.721 0.289455 280.937 0.256455C286.037 -0.520545 292.874 0.769455 298.157 0.211455C300.029 0.307455 300.845 2.59946 298.886 3.35546C297.944 3.71846 294.713 3.53845 293.495 3.52645C293.189 3.52345 291.326 3.11845 291.326 3.74545V23.2455H291.332ZM296.882 26.3115H283.082V72.9705H296.882V26.3115ZM299.282 34.4955V63.7455C299.282 64.8165 302.513 63.8955 303.152 63.7155C311.348 61.4085 316.022 52.7445 313.523 44.5545C312.017 39.6195 306.827 34.7565 301.589 34.1385C301.118 34.0815 299.429 33.9645 299.282 34.4955ZM279.74 75.7035C279.491 75.7845 279.386 75.9555 279.338 76.2015C279.26 76.6215 279.29 80.2275 279.407 80.4735C279.47 80.6055 279.602 80.6985 279.737 80.7435L300.332 80.6985C300.464 80.6235 300.557 80.5125 300.602 80.3685C300.74 79.9245 300.848 77.3205 300.782 76.7985C300.737 76.4265 300.626 75.8295 300.227 75.7035H279.737H279.74Z" fill="#FCF6F9"/>
<path d="M285.881 33.8683C286.412 33.8443 286.937 34.2193 286.841 34.7893V63.3043C286.937 64.7023 285.059 64.7623 285.023 63.4573V34.6423C284.987 34.1863 285.47 33.8893 285.878 33.8683H285.881Z" fill="#FCF6F9"/>
</g>
<defs>
<clipPath id="clip0_2079_11292">
<rect width="316.796" height="83.4825" fill="white"/>
</clipPath>
</defs>
</svg>
