<svg width="209" height="184" viewBox="0 0 209 184" fill="none" xmlns="http://www.w3.org/2000/svg">
<path d="M58.7372 112.285C58.7372 114.864 59.474 130.338 59.8424 137.522C58.5529 140.9 55.974 147.838 55.974 148.575C55.974 149.496 60.9477 150.417 63.5266 150.417C66.1056 150.417 63.5266 143.601 63.5266 141.943C63.5266 140.286 65.1845 128.128 65.1845 125.549C65.1845 122.97 68.6845 113.943 71.2635 111.18C73.8424 108.417 71.2635 115.049 71.2635 117.259V144.522C71.2635 146.18 79.3688 145.628 81.9477 144.522C84.5267 143.417 76.053 140.838 74.9477 139.365C73.8424 137.891 77.1582 123.891 77.1582 122.233C77.1582 120.575 80.474 107.312 80.474 103.628C80.474 100.68 81.4565 97.9783 81.9477 96.9958C83.7898 92.6362 87.474 83.3643 87.474 81.1534C87.474 78.3898 79.1846 67.5223 78.2635 67.5223C77.3425 67.5223 73.8424 68.996 76.053 65.1274C78.2635 61.2587 75.5003 54.8119 71.2635 54.4435C67.0266 54.0751 66.8424 58.496 66.8424 61.4434C66.8424 64.3908 69.053 65.68 63.5266 65.1274C58.0003 64.5747 48.7898 77.1008 47.8687 81.1534C46.9477 85.2061 57.6319 95.7063 58.7372 96.9958C59.8424 98.2853 58.7372 109.706 58.7372 112.285Z" fill="url(#paint0_linear_4401_44793)"/>
<path d="M169.529 73.5639C166.603 74.0259 164.293 86.4994 164.293 90.0414C164.293 93.3945 167.329 104.062 167.784 108.848C168.365 118.081 169.529 137.287 169.529 140.243C169.529 143.939 166.141 146.865 166.141 147.789C166.141 148.713 175.073 146.865 175.842 145.787C176.612 144.709 176.612 133.005 175.842 127.924C175.073 122.842 179.692 110.522 180.462 112.37C181.232 114.218 185.698 134.545 185.698 137.625V145.787C185.698 146.649 191.139 149.945 193.86 151.485V146.865C192.268 142.964 189.086 133.991 189.086 129.31C189.086 123.458 190.78 105.441 190.78 102.669C190.78 99.8969 193.86 92.9672 193.86 92.0432C193.86 91.1193 194.938 90.0414 194.63 86.3455C194.322 82.6496 189.702 71.7163 187.084 71.7163C184.466 71.7163 182.618 69.4062 182.464 66.4803C182.31 63.5544 182.002 60.4744 179.692 58.9345C177.382 57.3946 173.841 61.5525 173.687 63.5544C173.533 65.5563 175.842 70.1764 175.842 71.7163C175.842 73.2563 172.455 73.102 169.529 73.5639Z" fill="url(#paint1_linear_4401_44793)"/>
<path d="M5.23842 152.285C3.74638 152.285 4.30589 38.1434 4.30588 34.786C4.31315 32.5462 25.5675 39.4489 29.1111 41.3139C32.6547 43.179 31.3492 134.567 31.3492 136.245C31.3492 137.924 6.73046 152.285 5.23842 152.285Z" fill="url(#paint2_linear_4401_44793)"/>
<path d="M80.9606 137.551C79.0955 137.551 83.9447 105.659 84.3177 101.555C84.5054 99.9234 160.412 98.7578 162.09 98.7578C163.769 98.7578 165.448 137.551 165.448 139.229C165.448 140.908 82.8256 137.551 80.9606 137.551Z" fill="url(#paint3_linear_4401_44793)"/>
<path d="M77.5888 44.671C76.0478 44.6707 36.1949 44.6627 35.2653 41.8741C34.0086 41.151 31.9082 31.8027 31.9082 27.8862C31.9082 24.7531 130.632 26.5808 179.994 27.8862V50.6399C179.994 53.624 175.331 50.6399 171.414 50.6399C168.281 50.6399 170.109 41.3145 171.414 36.6517C140.827 37.0869 79.2433 37.9571 77.602 37.9571C75.5505 37.9571 78.9076 44.6713 77.602 44.671L77.5888 44.671Z" fill="url(#paint4_linear_4401_44793)"/>
<path d="M34.7111 141.17C11.1345 154.339 8.58568 157.738 8.37327 156.038C8.16086 154.339 6.24925 35.819 7.31126 36.6686C8.37327 37.5182 34.7111 43.8904 34.7111 44.74C34.7111 45.5897 33.6491 143.507 35.9855 144.144C38.3219 144.781 61.3276 143.861 62.4025 143.502C63.4774 143.144 63.1191 125.587 63.1191 123.557C63.1191 121.527 61.2081 103.492 61.8053 102.656C62.4025 101.82 61.6859 99.4316 62.4025 99.9094C63.1191 100.387 64.5523 102.656 66.5826 102.656C68.613 102.656 69.5684 98.7151 68.3741 98.4762C67.1798 98.2373 54.8782 89.041 58.3418 83.9054" stroke="#6D024C" stroke-width="2.2"/>
<path d="M61.8372 100.254C60.9938 99.1887 51.3164 86.7589 51.3164 84.939C51.3164 83.119 54.4979 78.3698 55.1675 78.2358C55.8371 78.1019 63.4705 69.8656 65.5463 69.7986C67.2069 69.7451 70.1665 69.7763 71.4387 69.7986C73.4252 71.1378 77.7999 73.5482 79.4069 72.4768C81.4157 71.1376 80.6122 59.5536 79.4069 58.817C78.2016 58.0805 70.8361 59.8886 70.8361 61.6965C70.8361 63.5044 71.4387 69.9994 71.4387 70.2673C71.4387 70.5351 80.4783 71.6734 81.2818 71.8073C82.0853 71.9412 90.3883 83.5847 90.3883 84.2618C90.3883 84.939 88.4465 96.5155 86.5716 99.7965C84.6967 103.078 83.1567 103.814 83.1567 101.805C83.1567 99.7965 81.9514 99.3947 82.1523 98.6582C82.3531 97.9216 86.5716 90.2212 86.5716 88.2794C86.5716 86.3376 84.0271 100.399 84.0271 104.952C84.0271 109.506 80.4783 128.857 80.2774 130.263C80.0765 131.669 77.8668 142.919 78.4695 143.454C79.0721 143.99 85.5003 146.4 85.3663 147.941C85.2324 149.481 81.7505 150.15 79.0052 149.481C76.2598 148.811 74.5189 149.012 74.5189 147.539C74.5189 146.066 74.6528 120.688 75.3893 116.67C76.1259 112.653 76.8625 109.64 76.1259 111.046C75.3893 112.452 71.7066 122.228 71.7066 123.701C71.7066 125.174 68.9612 125.576 69.363 124.906C69.7647 124.237 68.0238 139.169 67.5551 142.852C67.0863 146.534 68.5594 150.284 67.5551 151.556C66.5507 152.829 64.6088 153.029 62.8679 153.096C61.1269 153.163 60.6582 152.628 60.6582 152.092C60.6582 151.556 62.8679 144.124 62.8679 143.789" stroke="#6D024C" stroke-width="2.2"/>
<path d="M79.0332 142.688C81.9069 142.688 171.423 143.55 172.142 143.55" stroke="#6D024C" stroke-width="2.2"/>
<path d="M172.428 143.98C172.428 145.561 169.123 149.871 169.698 150.59C170.273 151.308 177.745 150.59 178.894 150.59C180.044 150.59 180.906 146.567 180.475 145.273C180.044 143.98 175.877 145.273 176.595 145.273C177.314 145.273 180.475 149.153 180.475 138.951C180.475 128.75 183.061 116.68 183.348 115.818C183.636 114.956 185.935 125.014 185.935 125.732C185.935 126.451 188.521 145.705 188.521 146.854C188.521 148.004 192.544 155.044 193.981 155.044C195.418 155.044 199.297 155.476 199.297 153.033C199.297 151.078 197.477 148.099 196.567 146.854L194.843 145.273C194.077 137.467 192.688 121.106 193.263 118.117C193.981 114.381 194.843 109.352 194.843 107.341C194.843 105.329 199.297 95.7019 199.297 90.9603C199.297 86.2187 194.7 77.1665 193.981 76.4481C193.263 75.7296 186.94 75.2983 186.94 73.8615C186.94 72.4246 184.929 67.5391 185.935 65.6711C186.94 63.8032 184.21 61.3604 182.343 61.5041C180.475 61.6478 175.446 64.9525 176.595 66.6768C177.745 68.401 178.032 73.8615 178.894 73.8615C179.756 73.8615 182.674 75.2901 184.498 73.1426C185.957 71.4246 181.37 74.6304 178.894 76.4481C178.894 76.5915 178.176 76.9934 175.302 77.4532C171.71 78.0279 165.819 89.8115 167.112 90.9603C168.146 91.8794 169.267 92.3965 169.698 92.5402C169.459 95.2702 169.325 101.851 170.704 106.334C172.428 111.938 173.416 94.3994 173.416 93.4698" stroke="#6D024C" stroke-width="2.2"/>
<path d="M193.366 93.7559C193.366 98.7195 191.839 106.355 190.598 106.451C189.357 106.546 171.317 105.878 171.126 107.501C170.935 109.124 174.658 138.522 173.703 140.813C173.703 141.206 172.674 143.614 172.105 143.614" stroke="#6D024C" stroke-width="2.2"/>
<path d="M34.2464 42.6393C38.9788 42.6396 32.669 33.6251 34.2464 31.8226C35.8239 30.0201 181.399 31.8226 183.202 31.8226C184.644 31.8226 183.803 48.3482 183.202 56.611H172.385C174.263 51.2027 176.892 40.6114 172.385 41.5127C166.752 42.6393 82.9218 42.6393 82.9218 42.6393V70.808" stroke="#6D024C" stroke-width="2.2"/>
<path d="M87.6328 100.967C96.045 100.967 144.074 100.967 167.037 100.967" stroke="#6D024C" stroke-width="2.2"/>
<defs>
<linearGradient id="paint0_linear_4401_44793" x1="67.6433" y1="54.4219" x2="67.6433" y2="150.417" gradientUnits="userSpaceOnUse">
<stop stop-color="#FF89CC"/>
<stop offset="1" stop-color="#DA9FFF"/>
</linearGradient>
<linearGradient id="paint1_linear_4401_44793" x1="179.489" y1="58.5996" x2="179.489" y2="151.485" gradientUnits="userSpaceOnUse">
<stop stop-color="#FF89CC"/>
<stop offset="1" stop-color="#DA9FFF"/>
</linearGradient>
<linearGradient id="paint2_linear_4401_44793" x1="17.8936" y1="34.3438" x2="17.8936" y2="152.285" gradientUnits="userSpaceOnUse">
<stop stop-color="#FF89CC"/>
<stop offset="1" stop-color="#DA9FFF"/>
</linearGradient>
<linearGradient id="paint3_linear_4401_44793" x1="122.991" y1="98.7578" x2="122.991" y2="139.699" gradientUnits="userSpaceOnUse">
<stop stop-color="#FF89CC"/>
<stop offset="1" stop-color="#DA9FFF"/>
</linearGradient>
<linearGradient id="paint4_linear_4401_44793" x1="105.951" y1="26.1562" x2="105.951" y2="51.9662" gradientUnits="userSpaceOnUse">
<stop stop-color="#FF89CC"/>
<stop offset="1" stop-color="#DA9FFF"/>
</linearGradient>
</defs>
</svg>
