<svg width="171" height="170" viewBox="0 0 171 170" fill="none" xmlns="http://www.w3.org/2000/svg">
<path d="M10.2793 124.989C21.9882 144.721 40.0761 159.18 61.1408 165.729C82.5457 172.364 105.283 170.181 125.185 159.606C143.273 149.966 157.25 134.147 164.565 115.01C171.681 96.3833 172.608 77.7887 166.144 59.0487C166.74 57.8864 166.181 54.5374 165.472 53.3183C165.302 53.0064 163.544 49.7177 160.397 44.4161C148.688 24.6839 130.572 10.225 109.451 3.73262C87.9891 -2.87312 65.1949 -0.661713 45.2359 9.96986C27.063 19.6375 13.0294 35.514 5.65814 54.6508C-1.57132 73.5041 -1.88319 94.257 4.77925 113.167C4.55244 114.131 4.66585 115.18 5.20451 116.087C5.37462 116.399 7.16075 119.716 10.2793 124.989ZM106.502 124.507C92.3267 132.049 73.4734 130.631 59.6382 120.935C56.8598 118.979 54.5351 116.512 52.8056 113.592L45.321 99.6153C44.7257 98.5946 43.7334 97.9426 42.656 97.7157C35.6534 76.6794 44.0169 55.6431 63.6073 45.2383C77.7827 37.697 96.6361 39.1145 110.471 48.8105C113.25 50.7667 115.574 53.2333 117.304 56.1534L125.327 71.1794C125.894 72.1149 126.773 72.7386 127.737 73.0221C134.144 93.7183 125.752 114.244 106.474 124.507H106.502ZM46.3133 12.0678C86.1746 -9.13863 134.314 5.29199 158.299 45.6352C160.425 49.2358 162.268 52.4111 163.261 54.1972C164.111 55.6714 163.913 57.4008 162.835 58.0813C162.297 58.3931 161.843 58.4215 161.673 58.4215C160.681 58.4782 159.688 58.0245 159.121 57.1173L154.188 49.7461C153.735 49.0657 152.742 48.8956 152.005 49.2925C151.183 49.7178 150.9 50.7667 151.382 51.5605L159.15 65.2257C159.972 66.6148 159.462 68.4293 157.959 69.1381C156.655 69.7618 155.096 69.1948 154.358 67.9757L146.42 54.0554C145.967 53.3183 145.031 53.0632 144.266 53.4601C143.443 53.8853 143.16 54.9343 143.642 55.7281L152.629 71.1794C153.423 72.4835 152.998 74.1845 151.693 74.95C150.389 75.7438 148.688 75.3186 147.923 74.0144L138.652 58.1096C138.227 57.4008 137.348 57.1457 136.611 57.5426C135.845 57.9678 135.562 58.9318 136.015 59.6689L142.678 70.9809C143.5 72.3701 142.99 74.1845 141.487 74.8933C140.183 75.517 138.624 74.95 137.887 73.7309L130.969 61.9937C130.6 61.3699 129.807 61.1431 129.154 61.4833C128.474 61.8519 128.219 62.7308 128.616 63.3829L130.515 66.8984C131.309 68.2309 130.856 69.9602 129.495 70.6974C129.495 70.6974 129.438 70.6974 129.41 70.7257C129.381 70.7257 129.353 70.7257 129.325 70.7257C129.268 70.7257 129.183 70.7541 129.126 70.7824C128.474 70.8675 127.709 70.584 127.368 70.017L119.345 54.991C117.389 51.7306 114.866 49.009 111.804 46.8543C97.2314 36.6764 77.3858 35.1738 62.4166 43.112C41.9473 53.9987 33.1018 75.914 40.1328 97.8859C40.1328 97.8859 40.3029 98.5096 40.5013 99.1616C39.1405 99.9271 38.6869 101.628 39.4807 102.961L41.3802 106.476C41.7771 107.157 41.5504 108.007 40.8416 108.376C40.1895 108.716 39.3957 108.489 39.0271 107.865L32.1095 96.1281C31.3724 94.909 29.8131 94.342 28.5089 94.9657C27.0347 95.6745 26.496 97.4889 27.3182 98.8781L33.9807 110.19C34.4343 110.956 34.1507 111.92 33.3853 112.316C32.6765 112.713 31.7693 112.458 31.344 111.749L22.0733 95.8446C21.2794 94.5405 19.6067 94.1152 18.3026 94.909C16.9984 95.7028 16.5732 97.3755 17.3671 98.6797L26.3543 114.131C26.8362 114.925 26.5527 115.974 25.7305 116.399C24.9651 116.796 24.0295 116.541 23.5759 115.804L15.6376 101.883C14.9005 100.664 13.3412 100.097 12.0371 100.721C10.5628 101.43 10.0242 103.244 10.8463 104.633L18.6145 118.298C19.0964 119.092 18.8129 120.113 17.9907 120.567C17.2536 120.963 16.2614 120.793 15.8077 120.113L10.8747 112.742C10.0809 111.438 8.40816 111.012 7.10402 111.806C7.04732 111.806 7.01898 111.863 6.99063 111.891C6.82053 111.579 6.67876 111.267 6.537 110.956C6.537 110.871 6.4803 110.814 6.45195 110.729C6.45195 110.729 6.39525 110.757 6.39525 110.785C-5.96573 73.0789 10.9031 31.0062 46.2849 12.1812L46.3133 12.0678Z" fill="#FFF8F2"/>
</svg>
