<svg width="55" height="84" viewBox="0 0 55 84" fill="none" xmlns="http://www.w3.org/2000/svg">
<g id="Group">
<path id="Vector" d="M52.4678 44.1216C53.0798 44.2146 53.4968 44.5506 53.7008 45.1386C54.0068 46.0116 54.0128 49.0566 54.0458 50.1936C54.2948 58.2456 54.4658 67.8606 54.0458 75.8556C53.8808 78.9876 53.1368 82.0596 49.6628 82.8726C48.5168 83.1426 44.1368 83.1096 42.8588 82.9806C39.9578 82.6836 38.1638 80.0856 37.9808 77.3586C37.2968 67.0866 38.5088 56.0526 37.9898 45.7026C38.3048 43.1286 41.0168 44.6316 42.1898 44.0526C42.5018 43.8996 42.5438 43.2666 42.5678 42.9306C43.1048 34.5396 42.0008 25.3746 42.4958 16.8966C41.1698 14.1396 41.9948 11.4216 42.1898 8.49956C42.3098 6.67856 42.1238 3.84956 42.5018 2.21156C42.5648 1.92956 43.0778 1.19456 43.3088 1.06856C43.6958 0.861564 47.6528 0.834564 48.2588 0.936564C48.6788 1.00856 49.3028 1.47356 49.3898 1.90556C49.5428 5.54456 50.1038 9.20156 50.1518 12.8436C50.1728 14.5596 49.9958 15.3456 49.3898 16.8966V43.6086C49.3568 43.7616 49.4948 44.1246 49.6208 44.1246C50.4518 44.1246 51.7148 44.0076 52.4708 44.1246L52.4678 44.1216ZM46.5218 43.9506C46.6388 43.8786 46.6838 43.3326 46.7018 43.1556C47.5178 34.7376 46.0808 24.9996 46.6928 16.4466C48.1298 14.0166 47.2988 11.8986 47.1488 9.24656C47.0738 7.92056 47.2478 6.50156 47.1518 5.19356C47.0318 3.53156 46.9448 3.42356 45.1868 3.69056C45.0818 4.70156 44.8358 5.81756 44.7488 6.85256C44.5118 9.69356 44.1158 13.5846 45.1988 16.1466V43.5996C45.1298 44.0856 46.3448 44.0646 46.5218 43.9536V43.9506ZM50.8178 46.9716H41.0678C41.0528 46.9716 40.8428 47.1816 40.8428 47.1966V78.3966C40.8428 78.5226 42.2738 79.9566 42.4958 80.0436C42.9098 80.2086 48.4868 80.2086 49.1318 80.0856C49.5248 80.0106 50.7878 79.0926 50.8898 78.8076C51.0218 78.4476 51.0308 76.9626 51.0488 76.4526C51.3998 66.9276 50.7638 57.1866 51.0488 47.6376C51.0698 47.4336 51.0278 47.0376 50.8148 46.9716H50.8178Z" fill="#FCF6F9"/>
<path id="Vector_2" d="M44.7058 49.1136C44.7838 49.2396 44.6968 49.4736 44.7808 49.6326C44.8408 49.7436 45.3088 49.7886 45.2038 50.1876L45.1918 71.3496C44.9938 72.9906 43.4278 74.2386 42.6328 72.2586V49.8936C42.6748 48.9876 44.2048 48.3186 44.7058 49.1166V49.1136Z" fill="#FCF6F9"/>
<path id="Vector_3" d="M47.4749 49.4076C47.8469 49.2156 48.5489 49.4346 48.7139 49.8276L48.7979 71.3556C48.7469 72.9666 47.319 73.3866 47.136 71.5056C46.491 64.8276 47.6399 57.1266 47.1299 50.3406C47.0909 50.1336 47.343 49.4766 47.472 49.4106L47.4749 49.4076Z" fill="#FCF6F9"/>
<path id="Vector_4" d="M21.2518 2.2133C26.0608 6.4073 27.2488 13.2983 23.5918 18.6953C22.2298 20.7083 20.5258 22.0223 18.4978 23.2373C18.1978 35.0723 18.3388 46.9883 18.4258 58.8203C20.0458 60.2123 21.7258 61.1333 23.0578 62.8883C25.8028 66.5003 26.5648 72.5033 24.3418 76.5593C18.2578 87.6653 1.4938 84.4823 0.0658031 71.7803C-0.516197 66.6083 2.60981 61.6553 7.06181 59.2433L7.10679 23.0693C7.07979 22.9673 5.7238 22.3433 5.5558 22.2233C0.476799 18.5753 -1.31419 12.1283 1.18481 6.4853C1.98581 4.6793 4.4158 1.3673 6.3058 0.806304C7.7518 0.377304 8.3428 1.7783 8.4478 2.9513C8.6998 5.8193 8.18679 8.9483 8.54979 11.8403C9.68379 12.3953 10.7218 13.2533 11.8648 13.7843C12.0508 13.8713 12.4588 14.0783 12.6178 14.0993C13.4398 14.2103 15.3868 12.7613 16.1128 12.2633C16.4368 12.0443 16.8778 12.2453 17.0818 11.5823C17.4448 8.5763 16.8358 5.1503 17.1418 2.1923C17.2048 1.5953 17.4298 1.0763 18.0148 0.815304C19.3468 0.218304 20.3518 1.4273 21.2578 2.2133H21.2518ZM19.9918 5.4203C19.7338 5.6783 19.9918 11.7413 19.9918 12.6953C19.9918 13.6493 18.3268 14.3273 17.6998 14.7233C16.5568 15.4433 15.1978 16.4243 13.8928 16.9493C12.3328 17.5793 11.3488 16.8293 9.9838 16.1003C9.3778 15.7763 6.6118 14.1653 6.2728 13.8113C4.8898 12.3773 5.4448 9.5303 5.2858 7.7483C5.0638 5.2463 4.0588 7.1393 3.6328 8.3393C2.3878 11.8553 3.23079 16.0823 5.90679 18.6713C7.37679 20.0903 9.6838 20.7323 9.9448 22.8863L9.9238 59.6303C9.6238 61.4963 7.80281 62.0993 6.55781 63.1643C-1.55419 70.1093 5.6278 83.2523 16.2058 79.7123C24.1468 77.0543 24.7678 65.6423 17.5798 61.8983C17.2798 61.7423 16.9618 61.9163 16.6108 61.6673C16.1428 61.3343 15.5488 59.9303 15.4798 59.3483L15.4978 22.7573C15.8308 20.7083 17.8558 20.2913 19.2418 19.1483C22.5598 16.4123 23.5378 11.8463 21.9388 7.8893C21.7858 7.5083 20.5888 4.8143 19.9858 5.4173L19.9918 5.4203Z" fill="#FCF6F9"/>
<path id="Vector_5" d="M17.9423 65.2226C18.5783 66.0746 18.6293 66.4736 19.1123 67.2776C19.7993 68.4206 21.3923 69.9536 20.9573 71.4146C20.6663 72.3896 18.6353 75.3146 17.9813 76.3886C17.5373 77.1206 17.5673 78.0146 16.3193 78.1766C15.1523 78.3266 12.7493 78.3416 11.5313 78.3056C10.8923 78.2876 8.77431 78.1916 8.39631 77.8796L5.01231 72.2216C4.43031 71.0336 4.44831 70.9496 5.02431 69.7316C5.46531 68.8076 7.56831 65.1296 8.16231 64.4696C8.44131 64.1606 8.84331 63.8216 9.25431 63.7616C10.4063 63.5936 15.1763 63.5966 16.3193 63.7616C17.2703 63.8996 17.4923 64.6226 17.9393 65.2166L17.9423 65.2226ZM17.1953 72.2216C17.2643 72.1076 17.5073 72.0746 17.6723 71.7296C18.2903 70.4306 17.2253 69.8126 16.5683 68.7716C16.2623 68.2856 15.6623 66.7406 15.1193 66.6206C14.7263 66.5366 10.4573 66.5816 10.2443 66.6986C9.87531 66.9026 8.73831 69.3296 8.39631 69.8756C8.25231 70.1066 7.77831 70.0856 7.69731 70.7606C7.65831 71.0756 7.79032 71.6996 7.98532 71.9246C8.10532 72.0626 8.3393 71.9906 8.4023 72.0536C8.6603 72.3296 9.35631 74.0096 9.66831 74.4716C9.84231 74.7296 10.1693 75.2576 10.4693 75.3206C10.7993 75.3926 15.0203 75.3716 15.2453 75.2936C15.5123 75.2006 16.9133 72.6836 17.1983 72.2186L17.1953 72.2216Z" fill="#FCF6F9"/>
</g>
</svg>
