<svg width="23" height="25" viewBox="0 0 23 25" fill="none" xmlns="http://www.w3.org/2000/svg">
<path d="M21.2676 5.98348C22.2829 4.80124 22.7271 4.25234 22.6214 3.93567C22.4945 3.66122 22.2406 3.45011 21.9656 3.38677C21.5849 3.23899 21.0561 3.17566 20.8022 3.32344C20.5907 3.49233 20.4003 3.70345 20.2311 3.91456L19.9138 4.27346C19.7023 4.06234 19.4908 3.85123 19.2792 3.68233C17.7351 2.3312 15.8314 1.46563 13.8007 1.14896C12.9757 0.283387 11.9181 -0.117731 10.8605 0.0300495C9.9509 0.17783 9.1471 0.726728 8.66059 1.50785C6.56647 2.1412 4.70503 3.32344 3.22434 4.94902C2.8859 4.84347 2.16671 4.97013 1.70135 5.22347C1.48982 5.30792 1.3206 5.49792 1.25714 5.70904C1.23599 5.85682 1.29945 6.06793 1.84942 6.72239C0.389879 9.02354 -0.223549 11.7469 0.0725889 14.4492C0.38988 17.1515 1.68019 19.6426 3.73201 21.4371C4.4512 22.0704 5.255 22.5982 6.10111 22.9993C10.0778 24.9205 14.7314 24.7516 18.5601 22.556C18.8773 22.366 18.9831 21.986 18.835 21.6693L18.7927 21.5637C18.1582 20.1704 16.2544 15.8848 17.312 12.0003C17.7563 10.3747 19.0466 8.64353 20.1465 7.27128C21.3311 9.08687 21.9233 11.2402 21.8387 13.4147C21.7753 15.3992 21.0984 17.3203 19.8927 18.9037C19.8292 18.967 19.8292 19.0515 19.8504 19.1359L19.9773 19.4104C20.0407 19.5159 20.1677 19.5793 20.2734 19.5159C20.3157 19.4948 20.3369 19.4737 20.358 19.4526C23.5098 15.5259 23.8905 10.058 21.2676 5.98348ZM7.41258 15.1881C6.98953 17.3203 6.90491 19.5159 7.13759 21.6904C6.33379 21.2893 5.57229 20.7615 4.87425 20.1704C3.01282 18.5659 1.76481 16.3703 1.3206 13.9425C0.897544 11.6836 1.27829 9.34021 2.39939 7.33462C2.82244 7.77796 3.33011 8.28463 3.85892 8.79131C5.14924 10.0791 6.62993 11.5358 7.34912 12.5703C7.77217 13.1614 7.64526 13.9214 7.41258 15.1881ZM18.7293 5.54014C16.339 7.94685 14.0757 9.25576 12.0239 9.40354C10.4374 9.53021 8.76635 9.04465 7.05298 8.01019C5.91074 7.2924 4.83195 6.44794 3.88008 5.49792L3.81662 5.43459C5.00117 4.1679 6.48186 3.2601 8.15292 2.75343C7.9837 3.429 7.9414 4.10456 8.04716 4.80124C8.21638 6.0046 8.85096 7.08128 9.80283 7.82018C11.1566 8.87576 13.1027 8.62242 14.1603 7.2924C14.2026 7.22906 14.2449 7.18684 14.2872 7.1235C14.9852 6.13126 15.2391 4.9068 15.0487 3.70345C15.0064 3.47122 14.9641 3.23899 14.9006 3.02788C16.1063 3.49233 17.2274 4.14679 18.1793 5.01236C18.3485 5.16014 18.5389 5.32903 18.7293 5.54014Z" fill="#DA291C"/>
</svg>
