<svg width="56" height="84" viewBox="0 0 56 84" fill="none" xmlns="http://www.w3.org/2000/svg">
<g id="Group">
<path id="Vector" d="M30.3323 23.5042C30.6293 24.4102 37.5473 23.3572 38.3243 24.1702C39.1013 24.9832 38.6123 29.2642 38.7263 30.5602C38.8553 32.0512 39.0683 31.3372 40.2413 31.5952C42.1403 32.0152 44.8493 32.9242 46.5623 33.8212C53.5583 37.4812 57.2063 46.1932 55.2893 53.8582C55.1123 54.5602 54.4733 55.2562 54.3653 55.6342C54.0923 56.5792 54.3443 56.7412 53.6513 57.7762C52.0193 60.2152 51.0743 61.3972 48.7913 63.2632C48.5873 63.4312 48.6203 63.7702 48.4163 63.9382C47.0483 65.0422 43.3013 66.7042 41.6393 66.9112C40.6703 67.0312 39.4343 66.6712 38.7683 67.6222L38.7443 72.9892C38.8613 73.4212 40.4573 73.1512 40.9883 73.3012C41.4083 73.4212 42.2423 74.2282 42.3293 74.6602C42.5363 75.7042 42.4733 80.9602 42.3443 82.1662C42.2543 83.0002 41.8733 83.1742 41.2433 83.6182L17.4983 83.7412C15.8423 83.4862 15.7193 83.1383 15.6263 81.5632C15.9623 79.3552 15.3293 76.4782 15.7853 74.3602C15.8243 74.1742 16.4993 73.3043 16.6313 73.2562C17.2583 73.0403 18.8423 73.5322 19.2203 72.9952C19.5143 72.5782 19.5143 68.8402 19.0493 68.6152C18.8333 68.5102 18.5183 68.6393 18.2753 68.5583C18.0533 68.4863 18.1523 68.1742 17.8103 68.1172C16.8443 67.9552 16.3103 68.4442 15.5543 68.4472C14.9693 68.4472 14.7593 68.1533 14.3603 68.1233C10.4873 67.8382 6.2573 68.3422 2.3453 68.1382C2.0183 68.1202 0.752299 68.0452 0.563299 67.9912C0.137299 67.8712 0.227306 65.5823 0.851306 65.5823H19.0013C19.0163 65.5823 19.2263 65.3722 19.2263 65.3572V25.1542L19.7723 23.9002C21.9353 23.7022 24.3743 24.0952 26.5043 23.8792C26.7713 23.8522 27.1043 23.8372 27.2273 23.5462L27.1013 3.77924H19.6013C19.5413 3.77924 18.5903 3.22424 18.5543 3.17624C18.2573 2.78924 18.2753 1.37324 18.6263 1.00424C18.7433 0.881244 19.7213 0.548244 19.9373 0.515244C25.0373 -0.261756 31.8743 1.02824 37.1573 0.470244C39.0293 0.566244 39.8453 2.85824 37.8863 3.61424C36.9443 3.97724 33.7133 3.79724 32.4953 3.78524C32.1893 3.78224 30.3263 3.37724 30.3263 4.00424V23.5042H30.3323ZM35.8823 26.5702H22.0823V73.2292H35.8823V26.5702ZM38.2823 34.7542V64.0042C38.2823 65.0752 41.5133 64.1542 42.1523 63.9742C50.3483 61.6672 55.0223 53.0032 52.5233 44.8132C51.0173 39.8782 45.8273 35.0152 40.5893 34.3972C40.1183 34.3402 38.4293 34.2232 38.2823 34.7542ZM18.7403 75.9622C18.4913 76.0432 18.3863 76.2142 18.3383 76.4603C18.2603 76.8802 18.2903 80.4862 18.4073 80.7322C18.4703 80.8642 18.6023 80.9573 18.7373 81.0023L39.3323 80.9572C39.4643 80.8822 39.5573 80.7713 39.6023 80.6273C39.7403 80.1833 39.8483 77.5792 39.7823 77.0573C39.7373 76.6852 39.6263 76.0882 39.2273 75.9622H18.7373H18.7403Z" fill="#FCF6F9"/>
<path id="Vector_2" d="M24.8814 34.1271C25.4124 34.1031 25.9374 34.4781 25.8414 35.0481V63.5631C25.9374 64.9611 24.0594 65.0211 24.0234 63.7161V34.9011C23.9874 34.4451 24.4704 34.1481 24.8784 34.1271H24.8814Z" fill="#FCF6F9"/>
</g>
</svg>
