<svg width="49" height="48" viewBox="0 0 49 48" fill="none" xmlns="http://www.w3.org/2000/svg">
<g id="Traffic">
<path id="Vector" d="M16.88 35.5569V36.9389V37.2222C16.88 37.5283 16.9333 37.7967 17.048 38.0436V37.2222V10.7778V9.95638C16.9333 10.2033 16.88 10.4717 16.88 10.7778V12.5778H15.08H11.5361C11.7926 13.3384 12.196 14.0093 12.7491 14.607L16.88 35.5569ZM16.88 35.5569L15.5449 35.2M16.88 35.5569L15.5449 35.2M31.9521 9.95515V10.7778V37.2222V38.0448C32.0667 37.7977 32.1201 37.5289 32.1201 37.2222V36.9389V35.5569L33.4552 35.2C34.5309 34.9124 35.4541 34.3559 36.251 33.4959C36.8041 32.8982 37.2075 32.2273 37.464 31.4667H33.9201H32.1201V29.6667V27.4944V26.1125L33.4552 25.7555C34.5309 25.4679 35.4541 24.9114 36.251 24.0515C36.8041 23.4537 37.2075 22.7828 37.464 22.0222H33.9201H32.1201V20.2222V18.05V16.668L33.4552 16.3111C34.5308 16.0235 35.454 15.4671 36.2509 14.6072L31.9521 9.95515ZM31.9521 9.95515C32.0667 10.2023 32.1201 10.4711 32.1201 10.7778V12.5778H33.9201H37.464C37.2075 13.3384 36.8041 14.0093 36.251 14.607L31.9521 9.95515ZM11.5361 31.4667C11.7926 32.2273 12.196 32.8982 12.7491 33.4959L11.5361 31.4667ZM11.5361 31.4667H15.08H16.88V29.6667V27.4944V26.1125L15.5449 25.7555C14.4693 25.4679 13.5462 24.9115 12.7493 24.0517L11.5361 31.4667ZM11.5361 22.0222C11.7926 22.7828 12.196 23.4537 12.7491 24.0515L11.5361 22.0222ZM11.5361 22.0222H15.08H16.88V20.2222V18.05V16.668L15.5449 16.3111C14.4692 16.0235 13.5461 15.467 12.7492 14.6072L11.5361 22.0222ZM15.5449 35.2C14.4693 34.9124 13.5462 34.356 12.7493 33.4962L15.5449 35.2ZM18.0114 8.97778C18.2623 8.85622 18.5353 8.8 18.848 8.8H30.1521C30.4646 8.8 30.7379 8.85618 30.9893 8.97778H30.1521H18.848H18.0114ZM30.1521 39.0222H30.9893C30.7379 39.1438 30.4646 39.2 30.1521 39.2H18.848C18.5353 39.2 18.2623 39.1438 18.0114 39.0222H18.848H30.1521ZM25.2509 33.2594C25.0836 33.4272 24.8806 33.5333 24.5001 33.5333C24.1196 33.5333 23.9165 33.4272 23.7492 33.2594C23.5815 33.0913 23.474 32.8855 23.474 32.5C23.474 32.1145 23.5815 31.9087 23.7492 31.7406C23.9166 31.5728 24.1196 31.4667 24.5001 31.4667C24.8805 31.4667 25.0836 31.5728 25.2509 31.7406C25.4186 31.9087 25.5261 32.1145 25.5261 32.5C25.5261 32.8855 25.4186 33.0913 25.2509 33.2594ZM25.2509 24.7594L26.4097 25.9152L25.2509 24.7594C25.0836 24.9272 24.8806 25.0333 24.5001 25.0333C24.1196 25.0333 23.9165 24.9272 23.7492 24.7594C23.5815 24.5913 23.474 24.3855 23.474 24C23.474 23.6145 23.5815 23.4087 23.7492 23.2406C23.9166 23.0728 24.1196 22.9667 24.5001 22.9667C24.8805 22.9667 25.0836 23.0728 25.2509 23.2406C25.4186 23.4087 25.5261 23.6145 25.5261 24C25.5261 24.3855 25.4186 24.5913 25.2509 24.7594ZM25.2509 16.2594L26.3132 17.319L25.2509 16.2594C25.0836 16.4272 24.8805 16.5333 24.5001 16.5333C24.1196 16.5333 23.9166 16.4272 23.7492 16.2594C23.5815 16.0913 23.474 15.8855 23.474 15.5C23.474 15.1145 23.5815 14.9087 23.7492 14.7406C23.9166 14.5728 24.1196 14.4667 24.5001 14.4667C24.8805 14.4667 25.0836 14.5728 25.2509 14.7406L26.4274 13.5671L25.2509 14.7406C25.4186 14.9087 25.5261 15.1145 25.5261 15.5C25.5261 15.8855 25.4186 16.0913 25.2509 16.2594Z" stroke="#DA4B97" stroke-width="3.6"/>
</g>
</svg>
