<?xml version="1.0" encoding="UTF-8" standalone="no"?>
<!-- Created with Inkscape (http://www.inkscape.org/) -->

<svg
   version="1.1"
   id="svg1"
   width="1063.64"
   height="411.02667"
   viewBox="0 0 1063.64 411.02667"
   sodipodi:docname="fb-logo_c_pos_cmyk.eps"
   xmlns:inkscape="http://www.inkscape.org/namespaces/inkscape"
   xmlns:sodipodi="http://sodipodi.sourceforge.net/DTD/sodipodi-0.dtd"
   xmlns="http://www.w3.org/2000/svg"
   xmlns:svg="http://www.w3.org/2000/svg">
  <defs
     id="defs1" />
  <sodipodi:namedview
     id="namedview1"
     pagecolor="#ffffff"
     bordercolor="#000000"
     borderopacity="0.25"
     inkscape:showpageshadow="2"
     inkscape:pageopacity="0.0"
     inkscape:pagecheckerboard="0"
     inkscape:deskcolor="#d1d1d1">
    <inkscape:page
       x="0"
       y="0"
       inkscape:label="1"
       id="page1"
       width="1063.64"
       height="411.02667"
       margin="0"
       bleed="0" />
  </sodipodi:namedview>
  <g
     id="g1"
     inkscape:groupmode="layer"
     inkscape:label="1">
    <g
       id="group-R5">
      <path
         id="path2"
         d="m 5398.62,1024.27 h -2834.9 v 2058.46 h 2834.9 V 1024.27"
         style="fill:#006b30;fill-opacity:1;fill-rule:nonzero;stroke:none"
         transform="matrix(0.13333333,0,0,-0.13333333,0,411.02667)" />
      <path
         id="path3"
         d="m 2888.74,2757.71 0.06,-1408.42 h 2184.8 l -0.29,1407.95 z m 2293.2,107.81 V 1240.95 H 2780.4 v 1625.1 l 2401.54,-0.53"
         style="fill:#ffffff;fill-opacity:1;fill-rule:nonzero;stroke:none"
         transform="matrix(0.13333333,0,0,-0.13333333,0,411.02667)" />
      <path
         id="path4"
         d="m 3441.33,1459.88 v 253.06 h 578.53 v 413.77 h -578.53 v 108.99 h 578.53 v 413.67 H 2997.08 V 1459.88 Z m -337.37,106.17 v 976.71 h 809.6 V 2342.78 H 3334.5 V 2019.6 h 579.06 V 1820.05 H 3334.5 v -253.58 z m 1664.54,146.83 c 114.5,0 207.25,92.62 207.25,206.88 0,114.28 -92.75,206.88 -207.25,206.88 -114.37,0 -641.63,0 -641.63,0 v -413.76 c 0,0 527.26,0 641.63,0 z m -534.24,107.1 v 199.57 c 0,0 476.62,0 531.78,0 55.22,0 99.94,-44.69 99.94,-99.79 0,-55.1 -44.72,-99.78 -99.94,-99.78 -55.16,0 -531.78,0 -531.78,0 z m 534.24,415.64 c 114.5,0 207.25,92.62 207.25,206.88 0,114.26 -92.75,206.8 -207.25,206.8 -114.37,0 -641.63,0 -641.63,0 v -413.68 c 0,0 527.26,0 641.63,0 z m -534.24,107.09 v 199.98 c 0,0 476.62,0 531.78,0 55.22,0 99.94,-45.08 99.94,-100.19 0,-55.12 -44.72,-99.79 -99.94,-99.79 -55.16,0 -531.78,0 -531.78,0"
         style="fill:#ffffff;fill-opacity:1;fill-rule:nonzero;stroke:none"
         transform="matrix(0.13333333,0,0,-0.13333333,0,411.02667)" />
      <path
         id="path5"
         d="M 72.1523,525.02 V 362.289 H 273.262 V 296.281 H 72.1523 V 12.2695 H 0 V 591.031 H 280.172 V 525.02 H 72.1523"
         style="fill:#231f20;fill-opacity:1;fill-rule:nonzero;stroke:none"
         transform="matrix(0.13333333,0,0,-0.13333333,0,411.02667)" />
      <path
         id="path6"
         d="M 648.613,457.48 545.754,223.352 H 751.465 Z M 515.82,157.34 449.805,12.2695 H 372.273 L 648.613,615.602 924.941,12.2695 H 847.41 L 781.406,157.34 H 515.82"
         style="fill:#231f20;fill-opacity:1;fill-rule:nonzero;stroke:none"
         transform="matrix(0.13333333,0,0,-0.13333333,0,411.02667)" />
      <path
         id="path7"
         d="m 1202.03,394.531 h -1.53 L 1132.95,12.2695 h -74.46 l 118.21,603.3325 198.81,-455.954 198.8,455.954 118.21,-603.3325 h -74.46 l -67.54,382.2615 h -1.54 L 1375.51,0 1202.03,394.531"
         style="fill:#231f20;fill-opacity:1;fill-rule:nonzero;stroke:none"
         transform="matrix(0.13333333,0,0,-0.13333333,0,411.02667)" />
      <path
         id="path8"
         d="m 1971.91,12.2695 h -72.15 V 591.031 h 72.15 V 12.2695"
         style="fill:#231f20;fill-opacity:1;fill-rule:nonzero;stroke:none"
         transform="matrix(0.13333333,0,0,-0.13333333,0,411.02667)" />
      <path
         id="path9"
         d="m 2295.06,78.2891 h 175.78 V 12.2695 H 2222.91 V 591.031 h 72.15 V 78.2891"
         style="fill:#231f20;fill-opacity:1;fill-rule:nonzero;stroke:none"
         transform="matrix(0.13333333,0,0,-0.13333333,0,411.02667)" />
      <path
         id="path10"
         d="M 2856.93,591.031 V 223.352 C 2856.93,112.059 2835.44,0 2700.34,0 c -33.77,0 -62.17,8.42969 -90.57,25.3203 l 36.08,61.3985 c 16.11,-12.2696 36.84,-19.1797 57.57,-19.1797 82.9,0 81.36,96.7109 81.36,155.8129 v 367.679 h 72.15"
         style="fill:#231f20;fill-opacity:1;fill-rule:nonzero;stroke:none"
         transform="matrix(0.13333333,0,0,-0.13333333,0,411.02667)" />
      <path
         id="path11"
         d="m 3095.65,591.031 h 310.87 V 525.02 H 3167.8 V 363.059 h 231.82 V 297.051 H 3167.8 V 78.2891 h 238.72 V 12.2695 H 3095.65 V 591.031"
         style="fill:#231f20;fill-opacity:1;fill-rule:nonzero;stroke:none"
         transform="matrix(0.13333333,0,0,-0.13333333,0,411.02667)" />
      <path
         id="path12"
         d="m 3697.43,76.75 h 55.28 c 66.77,0 136.63,19.9492 136.63,102.078 0,81.371 -82.9,98.274 -147.39,98.274 h -44.52 z m 0,257.91 h 18.43 c 68.31,0 124.35,13.809 124.35,96.719 0,81.359 -55.27,95.18 -122.82,95.18 h -19.96 z m -72.15,256.371 h 70.62 c 108.99,0 211.85,-28.402 211.85,-158.89 0,-42.219 -23.02,-91.34 -62.17,-109.762 v -1.527 c 68.32,-12.293 115.9,-79.071 115.9,-146.622 0,-115.898 -99.01,-161.9605 -201.1,-161.9605 h -135.1 V 591.031"
         style="fill:#231f20;fill-opacity:1;fill-rule:nonzero;stroke:none"
         transform="matrix(0.13333333,0,0,-0.13333333,0,411.02667)" />
      <path
         id="path13"
         d="m 4646.93,301.66 c 0,127.41 -95.18,234.11 -231.04,234.11 -135.87,0 -231.05,-106.7 -231.05,-234.11 0,-132.039 105.93,-234.1209 231.05,-234.1209 125.12,0 231.04,102.0819 231.04,234.1209 z m 72.15,0 C 4719.08,129.711 4583.22,0 4415.89,0 4248.55,0 4112.7,129.711 4112.7,301.66 c 0,165.801 137.39,301.66 303.19,301.66 165.79,0 303.19,-135.859 303.19,-301.66"
         style="fill:#231f20;fill-opacity:1;fill-rule:nonzero;stroke:none"
         transform="matrix(0.13333333,0,0,-0.13333333,0,411.02667)" />
      <path
         id="path14"
         d="m 5153.53,481.27 c -21.5,36.07 -49.14,54.5 -92.89,54.5 -46.05,0 -96.71,-31.481 -96.71,-82.129 0,-45.289 44.52,-69.082 80.6,-82.903 l 41.45,-16.129 c 82.13,-32.23 143.53,-77.507 143.53,-174.238 C 5229.51,75.2109 5148.15,0 5044.53,0 4950.88,0 4877.96,69.082 4865.68,161.949 l 72.92,15.352 c -0.77,-63.711 49.9,-109.7619 112.06,-109.7619 62.18,0 106.7,52.1909 106.7,112.8319 0,62.18 -49.89,89.039 -99.78,109.758 l -39.91,16.902 c -66.02,28.399 -125.89,66.008 -125.89,146.61 0,93.64 82.9,149.679 170.4,149.679 64.48,0 117.44,-31.48 148.91,-87.5 l -57.56,-34.55"
         style="fill:#231f20;fill-opacity:1;fill-rule:nonzero;stroke:none"
         transform="matrix(0.13333333,0,0,-0.13333333,0,411.02667)" />
      <path
         id="path15"
         d="m 5564.17,12.2695 h -72.15 V 525.02 h -137.4 v 66.011 h 346.95 V 525.02 h -137.4 V 12.2695"
         style="fill:#231f20;fill-opacity:1;fill-rule:nonzero;stroke:none"
         transform="matrix(0.13333333,0,0,-0.13333333,0,411.02667)" />
      <path
         id="path16"
         d="m 6162.12,718.449 c 0,-26.09 -20.73,-46.808 -46.06,-46.808 -26.1,0 -46.82,20.718 -46.82,46.808 0,25.332 20.72,46.063 46.82,46.063 25.33,0 46.06,-20.731 46.06,-46.063 z M 6034.7,457.48 5931.84,223.352 h 205.72 z m -34.54,260.969 c 0,-26.09 -20.73,-46.808 -46.06,-46.808 -26.09,0 -46.81,20.718 -46.81,46.808 0,25.332 20.72,46.063 46.81,46.063 25.33,0 46.06,-20.731 46.06,-46.063 z M 5901.9,157.34 5835.9,12.2695 h -77.53 L 6034.7,615.602 6311.04,12.2695 h -77.53 L 6167.49,157.34 H 5901.9"
         style="fill:#231f20;fill-opacity:1;fill-rule:nonzero;stroke:none"
         transform="matrix(0.13333333,0,0,-0.13333333,0,411.02667)" />
      <path
         id="path17"
         d="m 6532.85,78.2891 h 25.33 c 147.39,0 274.8,55.2619 274.8,223.3709 0,168.86 -127.41,223.36 -274.8,223.36 h -25.33 z M 6460.7,591.031 h 119.75 c 177.3,0 324.69,-93.64 324.69,-286.312 0,-197.258 -144.32,-292.4495 -327,-292.4495 H 6460.7 V 591.031"
         style="fill:#231f20;fill-opacity:1;fill-rule:nonzero;stroke:none"
         transform="matrix(0.13333333,0,0,-0.13333333,0,411.02667)" />
      <path
         id="path18"
         d="m 7092.42,591.031 h 310.87 V 525.02 H 7164.57 V 363.059 h 231.81 V 297.051 H 7164.57 V 78.2891 h 238.72 V 12.2695 H 7092.42 V 591.031"
         style="fill:#231f20;fill-opacity:1;fill-rule:nonzero;stroke:none"
         transform="matrix(0.13333333,0,0,-0.13333333,0,411.02667)" />
      <path
         id="path19"
         d="m 7689.43,317.012 h 23.04 c 73.68,0 153.52,13.808 153.52,105.918 0,90.582 -85.97,103.629 -157.36,103.629 h -19.2 z M 7977.29,12.2695 h -87.5 L 7719.38,257.121 h -29.95 V 12.2695 h -72.14 V 591.031 h 87.5 c 51.43,0 106.69,-0.761 152.75,-26.859 48.36,-28.402 76,-82.902 76,-138.172 0,-82.898 -55.28,-151.98 -138.94,-161.961 L 7977.29,12.2695"
         style="fill:#231f20;fill-opacity:1;fill-rule:nonzero;stroke:none"
         transform="matrix(0.13333333,0,0,-0.13333333,0,411.02667)" />
    </g>
  </g>
</svg>
