<?xml version="1.0" encoding="UTF-8"?>
<svg id="Lager_1" data-name="Lager 1" xmlns="http://www.w3.org/2000/svg" version="1.1" viewBox="0 0 1221.8 434.9">
  <defs>
    <style>
      .cls-1 {
        fill: #005f6a;
        stroke-width: 0px;
      }
    </style>
  </defs>
  <g>
    <path class="cls-1" d="M475.3,273.4c-.8,33.4-6.2,45.6-26.8,63.1s-33.6,15.3-41.5,15.3-26.4-.2-41.7-14.9c-15.6-14.9-17.2-40-17.5-62.3-.2-20,1.3-41.1,22.5-59.3,17.7-15.2,35.8-18,47.8-17.7,20.9.6,35.7,6.4,44,17.2,7,9.1,14,23.1,13.1,58.6M460,278.3c0-19.9-3.6-39.3-11.4-51.9-7.5-12.1-19.6-15.9-37-15.9s-24.8.3-33.4,7-15.8,13.6-15.8,47,6.1,48.1,13.2,56.3c6.3,7.2,25.9,18.1,43.1,17.8,15.3-.3,21.6-3.8,29-9.9,10.3-8.5,12.3-16.3,12.3-50.3Z"/>
    <path class="cls-1" d="M1076,273.4c-.8,33.4-6.2,45.6-26.8,63.1-18.8,16-33.6,15.3-41.5,15.3s-26.4-.2-41.7-14.9c-15.6-14.9-17.2-40-17.5-62.3-.2-20,1.3-41.1,22.5-59.3,17.7-15.2,35.8-18,47.8-17.7,20.9.6,35.7,6.4,44,17.2,7,9.1,14,23.1,13.1,58.6M1060.7,278.3c0-19.9-3.6-39.3-11.4-51.9-7.5-12.1-19.6-15.9-37-15.9s-24.8.3-33.4,7c-11.8,9-15.8,13.6-15.8,47s6.1,48.1,13.2,56.3c6.3,7.2,25.9,18.1,43.1,17.8,15.3-.3,21.6-3.8,29-9.9,10.3-8.5,12.3-16.3,12.3-50.3Z"/>
    <path class="cls-1" d="M226.6,349.8c-4.4,0-4.1-6-.2-6s8.9-1,8.9-10.2v-111.8c0-10.9-4-14.8-11.5-14.8-4.1.1-4.4-6,.2-6s35,0,53,0,39.1,3.4,46.8,11.1c6.9,6.9,10.1,16,10.1,27.5,0,25.4-14,36.7-18.9,40.4-4.9,3.8-15.6,13.6-35.2,13.6h-26.9v40c0,9.2,11.6,10.2,12.9,10.2,4.1,0,4.1,6-.2,6h-39.1ZM253,208.9v72.9s11.6,0,25.1,0,21.4,1.5,31.8-6.1c9.8-7.1,8.8-46.9-1.9-57.6-9.5-9.5-21.3-9.3-29.5-9.3-1.9,0-25.5,0-25.5,0"/>
    <path class="cls-1" d="M513.6,212.1c16.2-12.7,28.5-13.2,35.7-13.2s35.7,6.9,39.7,7.9.4.3.3.6c-.9,3.1-5.7,20.6-5.8,21.1-.9,4.6-7.4,3.1-6-1.3s.6-3.2.5-4c-.6-7.4-14.8-9.2-30.3-11.6s-24.8,2-29,5.2-9,6.2-9.5,17.2-.7,25.6,34.4,29.1c34.7,3.4,51.1,10.4,50.8,40.6s-9.4,24.1-19.7,31.8c-1.5,1.1-3,2.2-4.5,3.4-12,9.3-17.7,12.6-28.6,13.4-14.1,1-52.1-8.6-52.1-8.6,0,0,5.8-21.6,6.9-25.7,1.2-4.8,7-3.1,6,1.2s-1.6,8.9,7.8,12.4c10.8,4,27.1,7.2,33.4,7.2,4.6,0,20-.6,29-10.6,4.2-4.6,6.3-10.7,6.3-17.9,0-27.3-23.1-27.6-39.4-29.6-29.8-3.7-43.2-10-45.3-33.3-1.6-18,8.3-26.5,19.5-35.3Z"/>
    <path class="cls-1" d="M726.3,332.9c-1.5,3.6-7.1,16.9-7.1,16.9h-97s0-130.2,0-133.9c0-8.3-6.5-8-11.8-8s-4.2-6,0-6,105.6,0,105.6,0c0,0-4.6,17.1-5.9,22s-7.1,2.7-5.9-1.6c2.5-8.5-4.3-13.5-11.4-13.5h-52.7s0,58.7,0,58.7h60.3s-3.6,13.6-4.6,17.2-7,2.5-5.8-1.7c0,0,3.2-8.6-5.1-8.6h-44.8v65.8h63c10,0,14.9-4.7,18-10.2,1.9-3.3,6.9-1,5.3,2.8Z"/>
    <path class="cls-1" d="M777.4,349.8h-27.3v-127.2c0-12.3-.2-14.7-7.7-14.7s-4.2-6,0-6h25.6v128.8c0,10.5-.1,13,9.5,13s4.2,6.1,0,6.1Z"/>
    <path class="cls-1" d="M809.3,349.8v-127.9c0-9.7.5-14-5.6-14s-4.1-6,0-6,33.2,0,52.7.2c26.6.3,49.9,4.6,58.7,15.1,8.1,9.6,12.8,23.4,14.1,50.3,1.2,26-.7,48.3-24,65.2-19.1,13.8-32.5,17.2-42.6,17h-53.4ZM900.5,224.9c-9.5-10.8-31.9-15.9-50-15.9h-23.3v126.1h41.4c7.1,0,22.7,1,33.3-7.7s9.8-46,9.8-52.8c0,0,1.4-35.4-11.1-49.7Z"/>
    <path class="cls-1" d="M1097.8,219.3c0-8.1-6.1-10.9-10-10.9s-4.2-6-.1-6h18.8l98.4,115.5v-92.8c0-15.5-7.9-16.6-15.6-16.6s-4.3-6,0-6h29.4c4.1,0,4.2,6,0,6s-5,1.8-5,6,0,132,0,132c0,4.2-5,5-7.3,2.4-1.5-1.8-99.8-116.9-99.8-116.9v91.3c0,10.5-.1,21.2,9.5,21.2s4.2,6,0,6h-27.6c-4.3,0-4.1-6,0-6,9.6,0,9.5-10.9,9.5-21.4v-103.5Z"/>
  </g>
  <path class="cls-1" d="M288.2,6.9c-1-1.1-2.5-.9-4.2-1,0-1.4-1.7-1.4-4.1-1.6,0-2.1-.7-2.3-5.9-2.1-.1-1.2-.5-2.3-4.7-2.1s-6.9.5-12.5.9c-10.4.6-23.4.3-25.2.2-4.7-.2-6.4-.2-6.4,1.7-1,0-2,0-3.5,0-1.5,0-4.2,0-4.1,1.8-3,.2-4.7.2-4.4,2.3-1.4.1-2.7-.2-3.5.7-.6.7-.6,1.8-.5,2.7.4,9.7,15,21.8,16.6,23,0,0,0,.2,0,.3-2.9,5.2-5,10.8-6.4,17,0,0,0,0,0,0-.9,2.5-1.4,5.5-2.8,7.9-4.5,6.8-12,22.3-12.2,22.2-11-1.4-32.3.9-34.8,1.1-2.5.1-21.5-5.7-35.3-3.9-5.2.7-11-2.5-16.7-2.9,0,0-.1,0-.1,0-.9-1.1-.5-6.6-.2-8.1,0,0,0-.1.1-.1,1.3-.5,2.5,1.3,3.9.4,1.5-.9,2-3,3-4.5.3-.4,1.4,0,2.1.2.7.2,1.2-.5,1.3-1.1.2-.6,0-.7.1-.9.2-.3.4,0,.8.3.4.2,1,.2,1.3-.3.8-1.2,1.3-2.1,1.9-3.1.7-1.1,1.7-.2,3.6.3,1.1.3,3,0,3.1-2,.3-4.5-.5-9,1.1-12.4,0,0,0,0,0,0,1.9-1.7,3.9-3.5,5.2-5.8,0,0,.2-.1.3,0l1.7.7c0,0,.2,0,.3,0,1.2-1.5,2.9-10.1.3-15,0,0,0-.2,0-.3,2.2-1.6,3.2-6.1.1-8.3-1-.7-2.9-1.3-5.7-1.8,0,0-.2-.1-.2-.2,0-4.5-4.4-3.8-6.8-4.7,0,0-.1-.2,0-.3,1.4-3.4-8.4-3.5-8.8-4.4-1.5-3-8.8-3.2-11.4-.6-1.9,2-2.9,1.8-4.4,2.1-4.2,1-4.7,2.1-4.9,4.3,0,0,0,.2-.2.2-3.3.5-7,1.8-6.4,5.8,0,.1,0,.2-.1.2-1,.4-1.9.8-3.1,1.3-3.3,1.5-3.5,6.8-1.2,7.6.1,0,.1.2,0,.3-1,.9-4.5.7-8.1,5.8-1,1.4-1.8,2.5-3.5,2.8-1.5.3-2.4-.7-2.5-2,0-.4-.5-.6-.8-.4-.9.5-2.1,2.4-2.4,2.9-1,1.9-.8,4.9.8,6.2,1,.9.4,1.2.2,1.3-5.4,2.7-4.8,7.3-3.2,7.3-.4.7-1.1,1.2-2.1,2.1-2.1,2.2-2.7,5.7-.8,7.1-3,9.9,5.1,13.2,8,11.1,1.2-.9.7-1.6.2-1.8-2.7-1-1.7-3.7.3-3.8,1.4,0,2.8-.9,4.5-1.9.2-.1.4,0,.3.3-.4,1-.7,2-1.4,3.7-2.3,5.2-4.3,9-7.1,12.8,0,0,0,0-.1,0-4.5,1.1-11.8,5.7-13.8,6.5-4,1.6-13.5-.3-20,4.3-1.8,1.3-3.4-5.2-4.7-7.8-4.4-8.4-8.9-14.1-17.9-21.9-2.7-2.3-12.7-8.2-13.7-8.9-2.8-2.1-9.2.6-5.6,7.8s7.1,20.1,8,24.7c.9,4.7,6.6,22.8,8,24.8.3.5-1.1-.3-1.6,4.6-.4,4.5-1.1,6-1.5,8.9,0,0,0,0,0,0-.2,4.4,2.7,11.4,1,16.3,0,0,0,0,0,0-3,6.3-6.2,17.4-6.3,17.8-2.7,9.6-3.3,16-1.2,21.7,1.6,4.1,4.4,10.2,7.1,10.5,2,.2,3.8-.5,5.1-1.6,1.3-1.1,8.2-7.4,9.9-8.8.1-.1.3,0,.3.1.7,3.5,5.3,10.3,7.9,20.1.7,2.5,3.9,9.3,3.3,11.9-1.7,7.9-4.5,12-2.9,18.5,1.2,4.8,4,11.4,6.4,9.1,5.6-5.2,5.6-9.6,5.8-11,0,0,.8.9,1.8,1.8,1.2,1.1,2.5,2.2,3.7,3.1-2.4,7.2-5.1,16.9-5.9,24.5-1.2,12.3-1.2,31.5-1.4,32.8-.6,3.6-2.7,6-3.9,16.9-.6,5.1-5.9,15.9-6.8,19.4-1.3,5-4.4,16-2.1,37.6.5,5,1.8,28.9,1.8,28.9.1,2.4.3,6.5-.4,7.6-.8,1.1-3,7.8-3.4,9.4-.4,1.6-1.1,6-2.8,8.1-1.9,2.6-5,5.5-6.2,6.9-1.2,1.4-1.1,2.4-1.7,4.3-1,3.9,2,3.7,2.8,3.8,0,0,.2,0,.2.1.5,1.3,3.2,1.4,3.9,1.7.3,0,.6.5,1.5.8.9.3,2.9.5,3.8.1.3-.1.7.1,1.1.3,1.3.5,3.9.4,4.8-1,.2-.2.3-.3.4-.3.1,0,.2,0,.2.2.7,2.8,7.5,2,8.9.5,1.9-2,.1-3.8,1-5.6.9-1.8,0-3.8.2-5.1.4-2.8.3-4.8,1.2-7.4,1.5-4.2,2.2-9.6,1.6-13.2-.3-1.5-.3-5.1,0-8.6.3-3.5,2.2-10.6,4.7-21.5,2.5-10.9,6.3-16.7,8.1-27,1.1-6,1.1-14.4,1.1-17.3,0-2.9,1.6-9.1,2.6-12.7,0,0,6.2-6,8.5-15.7,1.2-5,1.9-11.4,2.1-12.8,0-1.2,3.5-5.7,6.2-11.5,5.5-11.5,15.4-34.6,17.8-39.7,0-.2.4-.1.4.1-.5,6.6-4.2,35.5-1.9,49,0,0,0,0,0,0-.2.5-1.9,5.7-2.7,8.4-1.6,5.2-1.5,8.2-1.6,12.7,0,2.1,0,6.3.6,11.4.3,2.2.6,5.7.6,6.2,0,0,0,0,0,.1-1.3,2.3-4.2,6.7-5.2,8.6-1,1.9-3.3,7.7-4.8,14.2-1.5,6.7-.2,10.6.2,14.4.6,5.3-1.5,23.6-2.4,31.5-.3,2.3-2.1,9.3-2.4,11.2-.3,1.9.3,4.1,0,5.6-.5,2.3-1.8,7.4-.9,11.4.5,2.2,0,5.2,4.5,5.7,3.9.4,7.9.2,9.8,1.9.9.8,4.8,2.3,5.6,2.9,0,0,0,0,0,0,1.8,2,6,3.4,9.1,1.9,1-.5,1.6-1.3,1.5-1.8,0-.1.1-.2.2-.2.6.1,2.1.7,4-.3,1.2-.6,1.5-.3,3.6-1,1.6-.5,1.4-1,2.8-1.7,2.5-1.2.6-4.4-1.4-4.7-1.1-.2-3.4-3.1-5.5-3.7-3.1-1-4.2-2.7-6-4.4-4.5-4.1-5.3-8.8-9.2-13.4-.5-.6-.3-1.5.1-2.7.4-1.2,1.5-4.2,3.4-9,2-4.8,11-28.4,15.5-42.7,1.2-3.6,4.9-13.4,4.9-24.1,0-4.4-.3-6.4.7-8.5,2.1-4.8,3-12,3.9-15.8.9-3.7,2.7-10.6,3.6-12.9s6.5-14.3,7.5-17.1c7.9-20.7,9.5-40.8,9.8-41.9,4.1-16.2,1.5-22.1,0-25.6-1.4-3.6-4.8-9.4-5-14.4-.3-5.2-.6-7.3-1.2-9.2-1.8-5.8-5-7.9-5.3-16.2-.2-4.9,6.1-30.8,6-39.8s1.5-7.6,3-7.7c10.8-1.1,14,.1,19.7-.7,10.5-1.5,17.7-4.2,24.3-5.8,6.1-1.4,11.6-4.5,17.7-6,2.3-.7,4.6-.4,6.8-.8,1.4-.1,3.1-.8,3.9-2.2,2.7-4.2,2.7-7.6,4-10.9,1.3-3.3,5.4-18.4,6-26.8.2-3.1,1.7-9.9,2.6-12.7.3-.8.7-1.5,1.5-1.9,4.6-2.1,13.9-.5,19.7-2,2.4-.6,5.2-2,8.1-3.3,2.5-1.1,4.2-1.8,6.1-3.3,1.7-1.4,3.5-2.1,2.2-3.9,0,0,0-.2,0-.3,7.6-4.7,12.7-14.7,14.5-22.1.6-2.3,0-3.5-.7-4.3ZM67.3,202.2c.7,2.2-3.8,10.5-6.7,16.5-1.3-3.7-3.7-7.4-6.8-10.9s-.3-.5-.2-.8c.9-3.7,3.1-18.7,3.5-23.3.8-9.6-1.6-32.3-1.7-33.1,0-.2.6-1.6,1.7-2.5s.3,0,.3.1c1.1,5.2,3.6,11.2,5.4,17.7.8,3.1,4.7,10.4,5.2,13.7,1,5.8-3,15.6-.9,22.5Z"/>
  <path class="cls-1" d="M131.1,278.3"/>
</svg>