<svg width="548" height="116" viewBox="0 0 548 116" fill="none" xmlns="http://www.w3.org/2000/svg">
<path d="M153.543 46.5423C153.343 46.9423 153.043 47.2423 152.743 47.5423C152.443 47.7423 152.043 47.8423 151.643 47.8423C151.143 47.8423 150.743 47.7423 150.343 47.4423C149.843 47.1423 149.343 46.9423 148.743 46.5423C148.043 46.2423 147.443 45.9423 146.743 45.6423C145.943 45.3423 145.043 45.2423 144.143 45.2423C142.743 45.1423 141.443 45.5423 140.343 46.3423C139.543 47.0423 139.043 48.1423 139.143 49.2423C139.143 49.9423 139.343 50.6423 139.943 51.2423C140.543 51.8423 141.143 52.2423 141.943 52.5423C142.843 52.9423 143.743 53.3423 144.743 53.5423C145.743 53.8423 146.843 54.2423 147.943 54.5423C149.043 54.9423 150.143 55.3423 151.143 55.9423C152.143 56.4423 153.143 57.1423 153.943 57.9423C154.743 58.7423 155.443 59.7423 155.943 60.8423C156.443 62.1423 156.743 63.5423 156.743 65.0423C156.743 66.7423 156.443 68.4423 155.843 70.1423C155.243 71.6423 154.343 73.0423 153.143 74.2423C151.843 75.4423 150.343 76.4423 148.743 77.0423C146.843 77.7423 144.843 78.0423 142.843 78.0423C141.643 78.0423 140.343 77.9423 139.143 77.6423C137.943 77.4423 136.643 77.0423 135.443 76.5423C134.243 76.1423 133.143 75.5423 132.143 74.9423C131.143 74.3423 130.243 73.6423 129.443 72.8423L132.143 68.6423C132.343 68.3423 132.643 68.0423 132.943 67.8423C133.343 67.6423 133.643 67.5423 134.143 67.5423C134.743 67.5423 135.243 67.7423 135.743 68.0423C136.243 68.3423 136.943 68.7423 137.543 69.1423C138.343 69.5423 139.043 69.9423 139.943 70.2423C140.943 70.6423 142.043 70.7423 143.143 70.7423C144.543 70.8423 145.843 70.4423 146.943 69.6423C147.943 68.7423 148.443 67.5423 148.343 66.2423C148.343 65.4423 148.143 64.6423 147.543 64.0423C147.043 63.4423 146.343 62.9423 145.543 62.6423C144.643 62.2423 143.743 61.9423 142.743 61.6423C141.743 61.3423 140.643 61.0423 139.543 60.7423C138.443 60.3423 137.343 59.9423 136.343 59.4423C135.343 58.9423 134.343 58.2423 133.543 57.4423C132.643 56.5423 132.043 55.4423 131.543 54.3423C131.043 52.8423 130.743 51.3423 130.743 49.7423C130.743 48.2423 131.043 46.8423 131.643 45.4423C132.243 44.0423 133.143 42.7423 134.243 41.7423C135.443 40.6423 136.843 39.7423 138.443 39.1423C140.243 38.4423 142.243 38.1423 144.143 38.1423C145.343 38.1423 146.443 38.2423 147.643 38.4423C148.743 38.6423 149.843 38.9423 150.843 39.2423C151.843 39.6423 152.743 40.0423 153.743 40.5423C154.643 41.0423 155.343 41.6423 156.143 42.2423L153.543 46.5423Z" fill="black"/>
<path d="M179.643 77.6422C179.043 77.6422 178.443 77.5422 177.943 77.3422C177.443 77.0422 177.143 76.5422 176.943 76.0422L176.343 74.5422C175.643 75.1422 175.043 75.6422 174.443 76.0422C173.843 76.4422 173.143 76.8422 172.543 77.1422C171.843 77.4422 171.143 77.6422 170.443 77.8422C169.643 78.0422 168.743 78.0422 167.943 78.0422C166.843 78.0422 165.643 77.9422 164.543 77.5422C163.643 77.2422 162.743 76.7422 161.943 76.1422C161.243 75.5422 160.643 74.7422 160.343 73.8422C159.943 72.8422 159.743 71.7422 159.743 70.6422C159.743 69.6422 160.043 68.6422 160.443 67.7422C161.043 66.6422 161.943 65.6422 162.943 64.9422C164.443 63.9422 166.043 63.2422 167.743 62.8422C170.243 62.2422 172.843 61.9422 175.443 62.0422V60.8422C175.543 59.6422 175.243 58.3422 174.443 57.3422C173.743 56.6422 172.743 56.2422 171.643 56.2422C170.843 56.2422 170.043 56.3422 169.343 56.5422C168.743 56.7422 168.243 56.9422 167.743 57.2422C167.243 57.5422 166.843 57.7422 166.343 57.9422C165.843 58.1422 165.243 58.2422 164.743 58.2422C164.243 58.2422 163.743 58.1422 163.343 57.8422C162.943 57.5422 162.643 57.2422 162.443 56.8422L160.943 54.3422C162.543 52.9422 164.343 51.8422 166.343 51.1422C168.443 50.4422 170.543 50.0422 172.743 50.0422C174.243 50.0422 175.743 50.2422 177.143 50.8422C178.443 51.3422 179.543 52.0422 180.443 53.0422C181.343 54.0422 182.043 55.1422 182.543 56.4422C183.043 57.8422 183.243 59.2422 183.243 60.7422V77.5422H179.643V77.6422ZM170.343 72.7422C171.243 72.7422 172.243 72.5422 173.043 72.2422C173.943 71.8422 174.743 71.2422 175.443 70.4422V66.7422C174.143 66.7422 172.743 66.8422 171.443 67.0422C170.543 67.1422 169.743 67.4422 168.943 67.8422C168.443 68.0422 167.943 68.4422 167.643 68.9422C167.443 69.3422 167.243 69.7422 167.243 70.2422C167.143 70.9422 167.443 71.7422 168.043 72.2422C168.743 72.6422 169.543 72.8422 170.343 72.7422Z" fill="black"/>
<path d="M203.243 77.6423H195.943L185.443 50.6423H192.143C192.643 50.6423 193.143 50.7423 193.543 51.0423C193.943 51.2423 194.143 51.6423 194.343 52.0423L198.043 64.1423C198.343 65.1423 198.643 66.0423 198.843 67.0423C199.043 68.0423 199.343 68.9423 199.543 69.8423C199.743 68.9423 199.943 67.9423 200.243 67.0423C200.543 66.1423 200.843 65.1423 201.143 64.1423L205.043 52.0423C205.143 51.6423 205.443 51.2423 205.843 51.0423C206.243 50.7423 206.743 50.6423 207.243 50.6423H213.643L203.243 77.6423Z" fill="black"/>
<path d="M227.943 50.2424C229.643 50.2424 231.243 50.5424 232.843 51.0424C234.243 51.5424 235.543 52.3424 236.643 53.4424C237.743 54.5424 238.643 55.8424 239.143 57.3424C239.743 59.0424 240.043 60.7424 240.043 62.5424C240.043 63.0424 240.043 63.5424 239.943 64.0424C239.943 64.3424 239.843 64.6424 239.643 64.9424C239.543 65.1424 239.343 65.3424 239.043 65.4424C238.743 65.5424 238.443 65.5424 238.143 65.5424H222.543C222.643 67.3424 223.343 69.1424 224.643 70.4424C225.843 71.4424 227.343 72.0424 228.943 71.9424C229.743 71.9424 230.543 71.8424 231.343 71.6424C231.943 71.4424 232.543 71.1424 233.143 70.8424C233.643 70.5424 234.143 70.3424 234.643 70.0424C235.043 69.8424 235.543 69.7424 236.043 69.7424C236.643 69.7424 237.143 69.9424 237.543 70.4424L239.843 73.3424C239.043 74.2424 238.143 75.0424 237.143 75.6424C236.243 76.2424 235.243 76.7424 234.143 77.0424C233.143 77.3424 232.143 77.6424 231.143 77.7424C230.143 77.8424 229.243 77.9424 228.243 77.9424C226.443 77.9424 224.643 77.6424 222.943 77.0424C221.343 76.4424 219.843 75.5424 218.643 74.3424C217.343 73.0424 216.343 71.5424 215.743 69.8424C214.943 67.8424 214.643 65.7424 214.643 63.5424C214.643 61.8424 214.943 60.0424 215.543 58.4424C216.743 55.2424 219.243 52.6424 222.343 51.3424C224.143 50.6424 226.043 50.2424 227.943 50.2424ZM228.143 55.8424C226.843 55.7424 225.543 56.2424 224.543 57.1424C223.543 58.2424 222.943 59.5424 222.843 60.9424H232.943C232.943 60.3424 232.843 59.6424 232.743 59.0424C232.543 58.4424 232.343 57.9424 231.943 57.4424C231.543 56.9424 231.043 56.5424 230.443 56.2424C229.643 55.9424 228.843 55.8424 228.143 55.8424Z" fill="black"/>
<path d="M264.943 78.0423C263.743 78.0423 262.643 77.8423 261.543 77.4423C259.643 76.7423 258.143 75.2423 257.543 73.3423C257.143 72.3423 257.043 71.2423 257.043 70.1423V56.2423H254.743C253.943 56.2423 253.243 55.6423 253.243 54.8423C253.243 54.7423 253.243 54.7423 253.243 54.6423V51.5423L257.543 50.7423L259.143 44.1423C259.343 43.3423 260.043 42.7423 260.943 42.9423H265.143V50.8423H271.743V56.3423H265.143V69.7423C265.143 70.3423 265.243 70.8423 265.643 71.2423C265.943 71.6423 266.443 71.8423 266.943 71.8423C267.243 71.8423 267.443 71.8423 267.643 71.7423C267.843 71.6423 268.043 71.6423 268.143 71.5423C268.243 71.4423 268.443 71.4423 268.543 71.3423C268.643 71.2423 268.843 71.2423 269.043 71.2423C269.243 71.2423 269.443 71.2423 269.643 71.4423C269.843 71.6423 269.943 71.7423 270.143 71.9423L272.543 75.7423C271.443 76.5423 270.343 77.1423 269.043 77.5423C267.743 77.8423 266.343 78.0423 264.943 78.0423Z" fill="black"/>
<path d="M276.243 77.6424V38.7424H284.343V53.0424C285.343 52.2424 286.343 51.5424 287.543 51.0424C288.843 50.5424 290.243 50.2424 291.643 50.2424C292.943 50.2424 294.343 50.4424 295.543 51.0424C296.643 51.5424 297.643 52.2424 298.443 53.1424C299.243 54.1424 299.843 55.2424 300.243 56.3424C300.643 57.6424 300.843 59.0424 300.843 60.4424V77.5424H292.743V60.5424C292.843 59.4424 292.443 58.3424 291.843 57.4424C291.143 56.6424 290.143 56.2424 289.143 56.3424C288.243 56.3424 287.443 56.5424 286.643 56.9424C285.843 57.3424 285.043 57.8424 284.443 58.4424V77.6424H276.243Z" fill="black"/>
<path d="M318.143 50.2424C319.843 50.2424 321.443 50.5424 323.043 51.0424C324.443 51.5424 325.743 52.3424 326.843 53.4424C327.943 54.5424 328.843 55.8424 329.343 57.3424C329.943 59.0424 330.243 60.7424 330.243 62.5424C330.243 63.0424 330.243 63.5424 330.143 64.0424C330.143 64.3424 330.043 64.6424 329.843 64.9424C329.743 65.1424 329.543 65.3424 329.243 65.4424C328.943 65.5424 328.643 65.5424 328.343 65.5424H312.843C312.943 67.3424 313.643 69.1424 314.943 70.4424C316.143 71.4424 317.643 72.0424 319.243 71.9424C320.043 71.9424 320.843 71.8424 321.643 71.6424C322.243 71.4424 322.843 71.1424 323.443 70.8424C323.943 70.5424 324.443 70.3424 324.943 70.0424C325.343 69.8424 325.843 69.7424 326.343 69.7424C326.943 69.7424 327.443 69.9424 327.843 70.4424L330.143 73.3424C329.343 74.2424 328.443 75.0424 327.443 75.6424C326.543 76.2424 325.543 76.7424 324.443 77.0424C323.443 77.3424 322.443 77.6424 321.443 77.7424C320.443 77.8424 319.543 77.9424 318.543 77.9424C316.743 77.9424 314.943 77.6424 313.243 77.0424C311.643 76.4424 310.143 75.5424 308.943 74.3424C307.643 73.0424 306.643 71.5424 306.043 69.8424C305.243 67.8424 304.943 65.7424 304.943 63.5424C304.943 61.8424 305.243 60.0424 305.843 58.4424C307.043 55.2424 309.543 52.6424 312.643 51.3424C314.343 50.6424 316.243 50.2424 318.143 50.2424ZM318.343 55.8424C317.043 55.7424 315.743 56.2424 314.743 57.1424C313.743 58.2424 313.143 59.5424 313.043 60.9424H323.143C323.143 60.3424 323.043 59.6424 322.943 59.0424C322.743 58.4424 322.543 57.9424 322.143 57.4424C321.743 56.9424 321.243 56.5424 320.643 56.2424C319.843 55.9424 319.143 55.8424 318.343 55.8424Z" fill="black"/>
<path d="M372.343 67.5424C372.543 67.5424 372.743 67.5424 372.943 67.6424C373.143 67.7424 373.343 67.8424 373.543 68.0424L377.143 71.8424C375.643 73.8424 373.543 75.4424 371.243 76.4424C368.543 77.5424 365.743 78.0424 362.843 78.0424C360.143 78.0424 357.443 77.5424 354.843 76.5424C352.543 75.5424 350.543 74.1424 348.843 72.3424C347.143 70.5424 345.943 68.3424 345.043 66.0424C344.143 63.4424 343.743 60.8424 343.743 58.1424C343.743 55.4424 344.243 52.6424 345.243 50.1424C346.243 47.7424 347.643 45.6424 349.443 43.8424C351.243 42.0424 353.443 40.6424 355.843 39.7424C358.443 38.7424 361.243 38.2424 364.143 38.2424C365.543 38.2424 366.943 38.3424 368.243 38.6424C369.443 38.8424 370.743 39.2424 371.843 39.7424C372.943 40.1424 373.943 40.7424 374.943 41.3424C375.843 41.9424 376.743 42.6424 377.443 43.4424L374.343 47.5424C374.143 47.8424 373.943 48.0424 373.643 48.2424C373.343 48.4424 372.943 48.5424 372.543 48.5424C372.243 48.5424 371.943 48.4424 371.643 48.3424C371.343 48.1424 371.043 48.0424 370.743 47.8424C370.443 47.6424 370.043 47.4424 369.643 47.1424C369.243 46.8424 368.743 46.6424 368.243 46.4424C367.643 46.2424 367.043 46.0424 366.443 45.9424C365.643 45.7424 364.843 45.7424 363.943 45.7424C362.443 45.7424 360.843 46.0424 359.443 46.6424C358.143 47.2424 356.943 48.0424 355.943 49.1424C354.943 50.2424 354.143 51.6424 353.643 53.0424C353.043 54.7424 352.843 56.4424 352.843 58.2424C352.843 60.0424 353.043 61.8424 353.643 63.5424C354.143 64.9424 354.843 66.3424 355.843 67.4424C356.743 68.4424 357.843 69.3424 359.143 69.8424C360.443 70.4424 361.743 70.6424 363.143 70.6424C363.943 70.6424 364.643 70.6424 365.343 70.5424C365.943 70.4424 366.643 70.3424 367.243 70.1424C367.843 69.9424 368.343 69.6424 368.943 69.3424C369.543 69.0424 370.043 68.6424 370.543 68.1424C370.743 67.9424 370.943 67.8424 371.243 67.7424C371.743 67.6424 372.043 67.5424 372.343 67.5424Z" fill="black"/>
<path d="M381.243 77.6424V38.7424H389.343V53.0424C390.343 52.2424 391.343 51.5424 392.543 51.0424C393.843 50.5424 395.243 50.2424 396.643 50.2424C397.943 50.2424 399.343 50.4424 400.543 51.0424C401.643 51.5424 402.643 52.2424 403.443 53.1424C404.243 54.1424 404.843 55.2424 405.243 56.3424C405.643 57.6424 405.843 59.0424 405.843 60.4424V77.5424H397.743V60.5424C397.843 59.4424 397.443 58.3424 396.843 57.4424C396.143 56.6424 395.143 56.2424 394.143 56.3424C393.243 56.3424 392.443 56.5424 391.643 56.9424C390.843 57.3424 390.043 57.8424 389.443 58.4424V77.6424H381.243Z" fill="black"/>
<path d="M421.143 43.3423C421.143 43.9423 421.043 44.5423 420.743 45.1423C420.443 45.7423 420.143 46.2423 419.643 46.6423C419.143 47.0423 418.643 47.4423 418.043 47.6423C417.443 47.9423 416.743 48.0423 416.143 48.0423C415.543 48.0423 414.843 47.9423 414.343 47.6423C413.743 47.4423 413.243 47.0423 412.843 46.6423C412.443 46.2423 412.043 45.7423 411.843 45.1423C411.543 44.5423 411.443 43.9423 411.443 43.3423C411.443 42.7423 411.543 42.0423 411.843 41.5423C412.043 40.9423 412.443 40.4423 412.843 40.0423C413.243 39.6423 413.843 39.2423 414.343 39.0423C414.943 38.8423 415.543 38.6423 416.143 38.6423C416.843 38.6423 417.443 38.7423 418.043 39.0423C419.243 39.5423 420.143 40.4423 420.643 41.5423C421.043 42.0423 421.143 42.6423 421.143 43.3423ZM420.243 50.7423V77.7423H412.143V50.7423H420.243Z" fill="black"/>
<path d="M435.643 38.7424V77.6424H427.543V38.7424H435.643Z" fill="black"/>
<path d="M461.343 77.6424C460.943 77.6424 460.443 77.5424 460.043 77.3424C459.643 77.1424 459.443 76.7424 459.343 76.3424L458.743 74.2424C458.243 74.8424 457.643 75.3424 457.043 75.8424C456.443 76.3424 455.843 76.7424 455.143 77.0424C454.443 77.3424 453.743 77.6424 452.943 77.8424C452.143 78.0424 451.243 78.1424 450.343 78.1424C448.943 78.1424 447.643 77.8424 446.443 77.2424C445.243 76.6424 444.143 75.6424 443.343 74.5424C442.443 73.2424 441.743 71.7424 441.343 70.2424C440.843 68.3424 440.543 66.3424 440.643 64.4424C440.643 62.5424 440.943 60.6424 441.443 58.8424C441.943 57.2424 442.743 55.7424 443.843 54.3424C444.843 53.1424 446.043 52.1424 447.543 51.3424C449.043 50.6424 450.643 50.2424 452.243 50.2424C453.443 50.2424 454.643 50.4424 455.743 50.8424C456.643 51.2424 457.543 51.7424 458.343 52.4424V38.7424H466.443V77.6424H461.343ZM453.143 71.9424C453.643 71.9424 454.243 71.8424 454.743 71.7424C455.243 71.6424 455.643 71.4424 456.043 71.2424C456.443 71.0424 456.843 70.7424 457.143 70.4424C457.543 70.1424 457.843 69.7424 458.243 69.3424V57.9424C457.743 57.3424 457.043 56.8424 456.243 56.5424C455.543 56.2424 454.743 56.1424 454.043 56.1424C453.343 56.1424 452.643 56.2424 451.943 56.5424C451.243 56.8424 450.743 57.3424 450.343 57.9424C449.843 58.7424 449.443 59.5424 449.243 60.4424C448.943 61.6424 448.843 62.9424 448.843 64.2424C448.843 65.4424 448.943 66.6424 449.143 67.8424C449.343 68.6424 449.543 69.4424 450.043 70.2424C450.343 70.7424 450.843 71.2424 451.343 71.5424C451.943 71.7424 452.543 71.9424 453.143 71.9424Z" fill="black"/>
<path d="M472.743 77.6423V50.6423H477.543C477.843 50.6423 478.243 50.6423 478.543 50.7423C478.743 50.8423 479.043 50.9423 479.243 51.0423C479.443 51.2423 479.543 51.4423 479.643 51.6423C479.743 51.9423 479.843 52.2423 479.843 52.5423L480.243 55.0423C481.143 53.6423 482.243 52.4423 483.543 51.4423C484.743 50.5423 486.143 50.1423 487.543 50.1423C488.643 50.0423 489.643 50.4423 490.543 51.0423L489.543 56.9423C489.543 57.2423 489.343 57.5423 489.143 57.7423C488.943 57.9423 488.643 57.9423 488.343 57.9423C488.043 57.9423 487.643 57.9423 487.343 57.8423C486.843 57.7423 486.343 57.7423 485.843 57.7423C483.743 57.7423 482.043 58.8423 480.843 61.1423V77.6423H472.743Z" fill="black"/>
<path d="M505.243 50.2424C506.943 50.2424 508.543 50.5424 510.143 51.0424C511.543 51.5424 512.843 52.3424 513.943 53.4424C515.043 54.5424 515.943 55.8424 516.443 57.3424C517.043 59.0424 517.343 60.7424 517.343 62.5424C517.343 63.0424 517.343 63.5424 517.243 64.0424C517.243 64.3424 517.143 64.6424 516.943 64.9424C516.843 65.1424 516.643 65.3424 516.343 65.4424C516.043 65.5424 515.743 65.5424 515.443 65.5424H499.943C500.043 67.3424 500.743 69.1424 502.043 70.4424C503.243 71.4424 504.743 72.0424 506.343 71.9424C507.143 71.9424 507.943 71.8424 508.743 71.6424C509.343 71.4424 509.943 71.1424 510.543 70.8424C511.043 70.5424 511.543 70.3424 512.043 70.0424C512.443 69.8424 512.943 69.7424 513.443 69.7424C514.043 69.7424 514.543 69.9424 514.943 70.4424L517.243 73.3424C516.443 74.2424 515.543 75.0424 514.543 75.6424C513.643 76.2424 512.643 76.7424 511.543 77.0424C510.543 77.3424 509.543 77.6424 508.543 77.7424C507.543 77.8424 506.643 77.9424 505.643 77.9424C503.843 77.9424 502.043 77.6424 500.343 77.0424C498.743 76.4424 497.243 75.5424 496.043 74.3424C494.743 73.0424 493.743 71.5424 493.143 69.8424C492.343 67.8424 492.043 65.7424 492.043 63.5424C492.043 61.8424 492.343 60.0424 492.943 58.4424C494.143 55.2424 496.643 52.6424 499.743 51.3424C501.443 50.6424 503.343 50.2424 505.243 50.2424ZM505.443 55.8424C504.143 55.7424 502.843 56.2424 501.843 57.1424C500.843 58.2424 500.243 59.5424 500.143 60.9424H510.143C510.143 60.3424 510.043 59.6424 509.943 59.0424C509.743 58.4424 509.543 57.9424 509.143 57.4424C508.743 56.9424 508.243 56.5424 507.643 56.2424C506.943 55.9424 506.143 55.8424 505.443 55.8424Z" fill="black"/>
<path d="M522.543 77.6423V50.6423H527.543C527.943 50.6423 528.443 50.7423 528.843 50.9423C529.243 51.1423 529.443 51.5423 529.543 51.9423L530.043 53.5423C530.543 53.0423 531.143 52.6423 531.643 52.1423C532.243 51.7423 532.843 51.3423 533.443 51.0423C534.143 50.7423 534.743 50.5423 535.543 50.3423C536.343 50.1423 537.143 50.0423 537.943 50.1423C539.243 50.1423 540.643 50.3423 541.843 50.9423C542.943 51.4423 543.943 52.1423 544.743 53.0423C545.543 54.0423 546.143 55.1423 546.543 56.2423C546.943 57.5423 547.143 58.9423 547.143 60.3423V77.4423H539.043V60.5423C539.143 59.4423 538.743 58.3423 538.143 57.4423C537.443 56.6423 536.443 56.2423 535.443 56.3423C534.543 56.3423 533.743 56.5423 532.943 56.9423C532.143 57.3423 531.343 57.8423 530.743 58.4423V77.6423H522.543Z" fill="black"/>
<path d="M100.543 28.3423C105.343 22.7423 107.443 20.1423 106.943 18.6423C106.343 17.3423 105.143 16.3423 103.843 16.0423C102.043 15.3423 99.5432 15.0423 98.3432 15.7423C97.3432 16.5423 96.4432 17.5423 95.6432 18.5423L94.1432 20.2423C93.1432 19.2423 92.1432 18.2423 91.1432 17.4423C83.8432 11.0423 74.8432 6.94234 65.2432 5.44234C61.3432 1.34234 56.3432 -0.557663 51.3432 0.142337C47.0432 0.842337 43.2432 3.44234 40.9432 7.14234C31.0432 10.1423 22.2432 15.7423 15.2432 23.4423C13.6432 22.9423 10.2432 23.5423 8.04316 24.7423C7.04316 25.1423 6.24316 26.0423 5.94316 27.0423C5.84316 27.7423 6.14317 28.7423 8.74317 31.8423C1.84316 42.7423 -1.05683 55.6423 0.343166 68.4423C1.84317 81.2423 7.94317 93.0423 17.6432 101.542C21.0432 104.542 24.8432 107.042 28.8432 108.942C47.6432 118.042 69.6432 117.242 87.7432 106.842C89.2432 105.942 89.7432 104.142 89.0432 102.642L88.8432 102.142C85.8432 95.5423 76.8432 75.2423 81.8432 56.8423C83.9432 49.1423 90.0432 40.9423 95.2432 34.4423C100.843 43.0423 103.643 53.2423 103.243 63.5423C102.943 72.9423 99.7432 82.0423 94.0432 89.5423C93.7432 89.8423 93.7432 90.2423 93.8432 90.6423L94.4432 91.9423C94.7432 92.4423 95.3432 92.7423 95.8432 92.4423C96.0432 92.3423 96.1432 92.2423 96.2432 92.1423C111.143 73.5423 112.943 47.6423 100.543 28.3423ZM35.0432 71.9423C33.0432 82.0423 32.6432 92.4423 33.7432 102.742C29.9432 100.842 26.3432 98.3423 23.0432 95.5423C14.2432 87.9423 8.34317 77.5423 6.24317 66.0423C4.24317 55.3423 6.04317 44.2423 11.3432 34.7423C13.3432 36.8423 15.7432 39.2423 18.2432 41.6423C24.3432 47.7423 31.3432 54.6423 34.7432 59.5423C36.7432 62.3423 36.1432 65.9423 35.0432 71.9423ZM88.5432 26.2423C77.2432 37.6423 66.5432 43.8423 56.8432 44.5423C49.3432 45.1423 41.4432 42.8423 33.3432 37.9423C27.9432 34.5423 22.8432 30.5423 18.3432 26.0423L18.0432 25.7423C23.6432 19.7423 30.6432 15.4423 38.5432 13.0423C37.7432 16.2423 37.5432 19.4423 38.0432 22.7423C38.8432 28.4423 41.8432 33.5423 46.3432 37.0423C52.7432 42.0423 61.9432 40.8423 66.9432 34.5423C67.1432 34.2423 67.3432 34.0423 67.5432 33.7423C70.8432 29.0423 72.0432 23.2423 71.1432 17.5423C70.9432 16.4423 70.7432 15.3423 70.4432 14.3423C76.1432 16.5423 81.4432 19.6423 85.9432 23.7423C86.7432 24.4423 87.6432 25.2423 88.5432 26.2423Z" fill="#DA291C"/>
</svg>
