<svg width="314" height="37" viewBox="0 0 314 37" fill="none" xmlns="http://www.w3.org/2000/svg">
<g clip-path="url(#clip0_1725_11807)">
<path fill-rule="evenodd" clip-rule="evenodd" d="M0.320801 2.04492V6.82253H8.38681L24.1717 35.5827H43.5959L59.3809 6.77477L67.4455 6.72539L67.463 2.04492H43.3327V6.74174H49.7588L38.6124 27.1879L26.5576 6.81304L35.3502 6.77477L35.3347 2.04492H0.320801Z" fill="black"/>
<path fill-rule="evenodd" clip-rule="evenodd" d="M189.198 2.2998V7.07741H197.262L213.047 35.8376H232.472L248.257 7.02966L256.323 6.98027L256.337 2.2998H232.211V6.99662H238.635L227.488 27.4428L215.432 7.06792L224.228 7.02966L224.211 2.2998H189.198Z" fill="black"/>
<path fill-rule="evenodd" clip-rule="evenodd" d="M138.441 2.04525V6.82285H146.506L146.519 30.303H138.017V35.5366L146.525 35.5833H186.793V19.972H181.548C181.26 28.2375 173.88 30.3141 170.771 30.3141C167.923 30.3141 162.404 30.3033 162.404 30.3033V6.81337L170.347 6.77477L170.336 2.04492L138.441 2.04525Z" fill="black"/>
<path fill-rule="evenodd" clip-rule="evenodd" d="M99.8659 31.2875C95.0332 31.2875 91.1175 25.6635 91.1175 18.7222C91.1175 11.7794 95.0332 6.15107 99.8659 6.15107C104.697 6.15107 108.614 11.7794 108.614 18.7222C108.614 25.6635 104.697 31.2875 99.8659 31.2875ZM100.221 1.08105C86.5127 1.08105 75.3999 9.01168 75.3999 18.7906C75.3999 28.5702 86.5123 36.4998 100.221 36.4998C113.929 36.4998 125.044 28.5702 125.044 18.7906C125.044 9.01168 113.929 1.08105 100.221 1.08105Z" fill="black"/>
<path fill-rule="evenodd" clip-rule="evenodd" d="M288.744 31.1974C283.913 31.1974 279.998 25.4801 279.998 18.4241C279.998 11.3707 283.913 5.65211 288.744 5.65211C293.576 5.65211 297.49 11.3707 297.49 18.4241C297.491 25.4798 293.576 31.1974 288.744 31.1974ZM289.101 0.499023C275.389 0.499023 264.28 8.55884 264.28 18.4974C264.28 28.4356 275.389 36.4938 289.101 36.4938C302.808 36.4938 313.921 28.4356 313.921 18.4974C313.921 8.55884 302.808 0.499023 289.101 0.499023Z" fill="black"/>
</g>
<defs>
<clipPath id="clip0_1725_11807">
<rect width="313.6" height="36" fill="white" transform="translate(0.320801 0.5)"/>
</clipPath>
</defs>
</svg>
